solid ascii
  facet normal 0.000000e+00 -1.000000e+00 0.000000e+00
    outer loop
      vertex   -2.165575e+02 1.527683e+02 8.600000e+01
      vertex   -2.165575e+02 1.527683e+02 8.600000e+01
      vertex   -2.165575e+02 1.527683e+02 8.600002e+01
    endloop
  endfacet
  facet normal 0.000000e+00 -1.000000e+00 0.000000e+00
    outer loop
      vertex   -2.165575e+02 1.527683e+02 8.600002e+01
      vertex   -2.165575e+02 1.527683e+02 8.600000e+01
      vertex   -2.160575e+02 1.527683e+02 8.600002e+01
    endloop
  endfacet
  facet normal 0.000000e+00 -1.000000e+00 -0.000000e+00
    outer loop
      vertex   -2.160575e+02 1.527683e+02 8.600002e+01
      vertex   -2.165575e+02 1.527683e+02 8.600000e+01
      vertex   -2.160575e+02 1.527683e+02 8.200002e+01
    endloop
  endfacet
  facet normal 0.000000e+00 -1.000000e+00 0.000000e+00
    outer loop
      vertex   -2.160575e+02 1.527683e+02 8.200002e+01
      vertex   -2.165575e+02 1.527683e+02 8.600000e+01
      vertex   -2.165575e+02 1.527683e+02 8.200002e+01
    endloop
  endfacet
  facet normal 0.000000e+00 0.000000e+00 -1.000000e+00
    outer loop
      vertex   -2.165575e+02 1.547683e+02 8.200002e+01
      vertex   -2.160575e+02 1.547683e+02 8.200002e+01
      vertex   -2.165575e+02 1.527683e+02 8.200002e+01
    endloop
  endfacet
  facet normal 0.000000e+00 0.000000e+00 -1.000000e+00
    outer loop
      vertex   -2.165575e+02 1.527683e+02 8.200002e+01
      vertex   -2.160575e+02 1.547683e+02 8.200002e+01
      vertex   -2.160575e+02 1.527683e+02 8.200002e+01
    endloop
  endfacet
  facet normal 0.000000e+00 0.000000e+00 -1.000000e+00
    outer loop
      vertex   -2.160575e+02 1.527683e+02 8.200002e+01
      vertex   -2.160575e+02 1.547683e+02 8.200002e+01
      vertex   -2.145575e+02 1.562683e+02 8.200002e+01
    endloop
  endfacet
  facet normal 0.000000e+00 0.000000e+00 -1.000000e+00
    outer loop
      vertex   -2.160575e+02 1.527683e+02 8.200002e+01
      vertex   -2.145575e+02 1.562683e+02 8.200002e+01
      vertex   -2.145575e+02 1.512683e+02 8.200002e+01
    endloop
  endfacet
  facet normal 0.000000e+00 0.000000e+00 -1.000000e+00
    outer loop
      vertex   -2.145575e+02 1.512683e+02 8.200002e+01
      vertex   -2.145575e+02 1.562683e+02 8.200002e+01
      vertex   -2.135575e+02 1.555683e+02 8.200002e+01
    endloop
  endfacet
  facet normal 0.000000e+00 0.000000e+00 -1.000000e+00
    outer loop
      vertex   -2.145575e+02 1.512683e+02 8.200002e+01
      vertex   -2.135575e+02 1.555683e+02 8.200002e+01
      vertex   -2.135575e+02 1.519683e+02 8.200002e+01
    endloop
  endfacet
  facet normal 0.000000e+00 0.000000e+00 -1.000000e+00
    outer loop
      vertex   -2.145575e+02 1.562683e+02 8.200002e+01
      vertex   -2.142575e+02 1.562683e+02 8.200002e+01
      vertex   -2.135575e+02 1.555683e+02 8.200002e+01
    endloop
  endfacet
  facet normal 0.000000e+00 0.000000e+00 -1.000000e+00
    outer loop
      vertex   -2.135575e+02 1.555683e+02 8.200002e+01
      vertex   -2.142575e+02 1.562683e+02 8.200002e+01
      vertex   -2.141360e+02 1.562577e+02 8.200002e+01
    endloop
  endfacet
  facet normal 0.000000e+00 0.000000e+00 -1.000000e+00
    outer loop
      vertex   -2.135575e+02 1.555683e+02 8.200002e+01
      vertex   -2.141360e+02 1.562577e+02 8.200002e+01
      vertex   -2.140181e+02 1.562261e+02 8.200002e+01
    endloop
  endfacet
  facet normal 0.000000e+00 0.000000e+00 -1.000000e+00
    outer loop
      vertex   -2.140181e+02 1.562261e+02 8.200002e+01
      vertex   -2.139075e+02 1.561745e+02 8.200002e+01
      vertex   -2.135575e+02 1.555683e+02 8.200002e+01
    endloop
  endfacet
  facet normal 0.000000e+00 0.000000e+00 -1.000000e+00
    outer loop
      vertex   -2.135575e+02 1.555683e+02 8.200002e+01
      vertex   -2.139075e+02 1.561745e+02 8.200002e+01
      vertex   -2.138076e+02 1.561046e+02 8.200002e+01
    endloop
  endfacet
  facet normal 0.000000e+00 0.000000e+00 -1.000000e+00
    outer loop
      vertex   -2.135575e+02 1.555683e+02 8.200002e+01
      vertex   -2.138076e+02 1.561046e+02 8.200002e+01
      vertex   -2.137213e+02 1.560183e+02 8.200002e+01
    endloop
  endfacet
  facet normal 0.000000e+00 0.000000e+00 -1.000000e+00
    outer loop
      vertex   -2.137213e+02 1.560183e+02 8.200002e+01
      vertex   -2.136513e+02 1.559183e+02 8.200002e+01
      vertex   -2.135575e+02 1.555683e+02 8.200002e+01
    endloop
  endfacet
  facet normal 0.000000e+00 0.000000e+00 -1.000000e+00
    outer loop
      vertex   -2.135575e+02 1.555683e+02 8.200002e+01
      vertex   -2.136513e+02 1.559183e+02 8.200002e+01
      vertex   -2.135997e+02 1.558077e+02 8.200002e+01
    endloop
  endfacet
  facet normal 0.000000e+00 0.000000e+00 -1.000000e+00
    outer loop
      vertex   -2.135575e+02 1.555683e+02 8.200002e+01
      vertex   -2.135997e+02 1.558077e+02 8.200002e+01
      vertex   -2.135682e+02 1.556899e+02 8.200002e+01
    endloop
  endfacet
  facet normal -0.000000e+00 0.000000e+00 -1.000000e+00
    outer loop
      vertex   -2.135682e+02 1.518468e+02 8.200002e+01
      vertex   -2.135997e+02 1.517289e+02 8.200002e+01
      vertex   -2.135575e+02 1.519683e+02 8.200002e+01
    endloop
  endfacet
  facet normal 0.000000e+00 0.000000e+00 -1.000000e+00
    outer loop
      vertex   -2.135575e+02 1.519683e+02 8.200002e+01
      vertex   -2.135997e+02 1.517289e+02 8.200002e+01
      vertex   -2.136513e+02 1.516183e+02 8.200002e+01
    endloop
  endfacet
  facet normal 0.000000e+00 0.000000e+00 -1.000000e+00
    outer loop
      vertex   -2.135575e+02 1.519683e+02 8.200002e+01
      vertex   -2.136513e+02 1.516183e+02 8.200002e+01
      vertex   -2.137213e+02 1.515184e+02 8.200002e+01
    endloop
  endfacet
  facet normal -0.000000e+00 0.000000e+00 -1.000000e+00
    outer loop
      vertex   -2.137213e+02 1.515184e+02 8.200002e+01
      vertex   -2.138076e+02 1.514321e+02 8.200002e+01
      vertex   -2.135575e+02 1.519683e+02 8.200002e+01
    endloop
  endfacet
  facet normal 0.000000e+00 0.000000e+00 -1.000000e+00
    outer loop
      vertex   -2.135575e+02 1.519683e+02 8.200002e+01
      vertex   -2.138076e+02 1.514321e+02 8.200002e+01
      vertex   -2.139075e+02 1.513621e+02 8.200002e+01
    endloop
  endfacet
  facet normal 0.000000e+00 0.000000e+00 -1.000000e+00
    outer loop
      vertex   -2.135575e+02 1.519683e+02 8.200002e+01
      vertex   -2.139075e+02 1.513621e+02 8.200002e+01
      vertex   -2.140181e+02 1.513105e+02 8.200002e+01
    endloop
  endfacet
  facet normal -0.000000e+00 0.000000e+00 -1.000000e+00
    outer loop
      vertex   -2.140181e+02 1.513105e+02 8.200002e+01
      vertex   -2.141360e+02 1.512789e+02 8.200002e+01
      vertex   -2.135575e+02 1.519683e+02 8.200002e+01
    endloop
  endfacet
  facet normal 0.000000e+00 0.000000e+00 -1.000000e+00
    outer loop
      vertex   -2.135575e+02 1.519683e+02 8.200002e+01
      vertex   -2.141360e+02 1.512789e+02 8.200002e+01
      vertex   -2.142575e+02 1.512683e+02 8.200002e+01
    endloop
  endfacet
  facet normal 0.000000e+00 0.000000e+00 -1.000000e+00
    outer loop
      vertex   -2.135575e+02 1.519683e+02 8.200002e+01
      vertex   -2.142575e+02 1.512683e+02 8.200002e+01
      vertex   -2.145575e+02 1.512683e+02 8.200002e+01
    endloop
  endfacet
  facet normal 4.348060e-02 -9.990543e-01 0.000000e+00
    outer loop
      vertex   -2.142575e+02 1.512683e+02 8.600002e+01
      vertex   -2.142575e+02 1.512683e+02 8.200002e+01
      vertex   -2.141965e+02 1.512710e+02 8.400002e+01
    endloop
  endfacet
  facet normal 8.703966e-02 -9.962040e-01 -1.332436e-03
    outer loop
      vertex   -2.141965e+02 1.512710e+02 8.400002e+01
      vertex   -2.142575e+02 1.512683e+02 8.200002e+01
      vertex   -2.141360e+02 1.512789e+02 8.200002e+01
    endloop
  endfacet
  facet normal 1.736996e-01 -9.847978e-01 1.336483e-03
    outer loop
      vertex   -2.141965e+02 1.512710e+02 8.400002e+01
      vertex   -2.141360e+02 1.512789e+02 8.200002e+01
      vertex   -2.140764e+02 1.512922e+02 8.400002e+01
    endloop
  endfacet
  facet normal 2.588609e-01 -9.659137e-01 -1.326921e-03
    outer loop
      vertex   -2.140764e+02 1.512922e+02 8.400002e+01
      vertex   -2.141360e+02 1.512789e+02 8.200002e+01
      vertex   -2.140181e+02 1.513105e+02 8.200002e+01
    endloop
  endfacet
  facet normal 3.419937e-01 -9.397013e-01 1.334606e-03
    outer loop
      vertex   -2.140764e+02 1.512922e+02 8.400002e+01
      vertex   -2.140181e+02 1.513105e+02 8.200002e+01
      vertex   -2.139617e+02 1.513339e+02 8.400002e+01
    endloop
  endfacet
  facet normal 4.226387e-01 -9.062973e-01 -1.331102e-03
    outer loop
      vertex   -2.139617e+02 1.513339e+02 8.400002e+01
      vertex   -2.140181e+02 1.513105e+02 8.200002e+01
      vertex   -2.139075e+02 1.513621e+02 8.200002e+01
    endloop
  endfacet
  facet normal 4.999854e-01 -8.660328e-01 1.331480e-03
    outer loop
      vertex   -2.139617e+02 1.513339e+02 8.400002e+01
      vertex   -2.139075e+02 1.513621e+02 8.200002e+01
      vertex   -2.138560e+02 1.513949e+02 8.400002e+01
    endloop
  endfacet
  facet normal 5.735458e-01 -8.191724e-01 -1.331301e-03
    outer loop
      vertex   -2.138560e+02 1.513949e+02 8.400002e+01
      vertex   -2.139075e+02 1.513621e+02 8.200002e+01
      vertex   -2.138076e+02 1.514321e+02 8.200002e+01
    endloop
  endfacet
  facet normal 6.427633e-01 -7.660637e-01 1.332413e-03
    outer loop
      vertex   -2.138560e+02 1.513949e+02 8.400002e+01
      vertex   -2.138076e+02 1.514321e+02 8.200002e+01
      vertex   -2.137625e+02 1.514733e+02 8.400002e+01
    endloop
  endfacet
  facet normal 7.071062e-01 -7.071062e-01 -1.332514e-03
    outer loop
      vertex   -2.137625e+02 1.514733e+02 8.400002e+01
      vertex   -2.138076e+02 1.514321e+02 8.200002e+01
      vertex   -2.137213e+02 1.515184e+02 8.200002e+01
    endloop
  endfacet
  facet normal 7.660637e-01 -6.427633e-01 1.332413e-03
    outer loop
      vertex   -2.137625e+02 1.514733e+02 8.400002e+01
      vertex   -2.137213e+02 1.515184e+02 8.200002e+01
      vertex   -2.136841e+02 1.515668e+02 8.400002e+01
    endloop
  endfacet
  facet normal 8.191724e-01 -5.735458e-01 -1.331301e-03
    outer loop
      vertex   -2.136841e+02 1.515668e+02 8.400002e+01
      vertex   -2.137213e+02 1.515184e+02 8.200002e+01
      vertex   -2.136513e+02 1.516183e+02 8.200002e+01
    endloop
  endfacet
  facet normal 8.660328e-01 -4.999854e-01 1.331480e-03
    outer loop
      vertex   -2.136841e+02 1.515668e+02 8.400002e+01
      vertex   -2.136513e+02 1.516183e+02 8.200002e+01
      vertex   -2.136231e+02 1.516725e+02 8.400002e+01
    endloop
  endfacet
  facet normal 9.062750e-01 -4.226865e-01 -1.329490e-03
    outer loop
      vertex   -2.136231e+02 1.516725e+02 8.400002e+01
      vertex   -2.136513e+02 1.516183e+02 8.200002e+01
      vertex   -2.135997e+02 1.517289e+02 8.200002e+01
    endloop
  endfacet
  facet normal 9.396867e-01 -3.420339e-01 1.335911e-03
    outer loop
      vertex   -2.136231e+02 1.516725e+02 8.400002e+01
      vertex   -2.135997e+02 1.517289e+02 8.200002e+01
      vertex   -2.135814e+02 1.517871e+02 8.400002e+01
    endloop
  endfacet
  facet normal 9.659534e-01 -2.587129e-01 -1.331593e-03
    outer loop
      vertex   -2.135814e+02 1.517871e+02 8.400002e+01
      vertex   -2.135997e+02 1.517289e+02 8.200002e+01
      vertex   -2.135682e+02 1.518468e+02 8.200002e+01
    endloop
  endfacet
  facet normal 9.847978e-01 -1.736996e-01 1.327644e-03
    outer loop
      vertex   -2.135814e+02 1.517871e+02 8.400002e+01
      vertex   -2.135682e+02 1.518468e+02 8.200002e+01
      vertex   -2.135602e+02 1.519073e+02 8.400002e+01
    endloop
  endfacet
  facet normal 9.961931e-01 -8.716377e-02 -1.336901e-03
    outer loop
      vertex   -2.135602e+02 1.519073e+02 8.400002e+01
      vertex   -2.135682e+02 1.518468e+02 8.200002e+01
      vertex   -2.135575e+02 1.519683e+02 8.200002e+01
    endloop
  endfacet
  facet normal 9.990547e-01 -4.346975e-02 0.000000e+00
    outer loop
      vertex   -2.135602e+02 1.519073e+02 8.400002e+01
      vertex   -2.135575e+02 1.519683e+02 8.200002e+01
      vertex   -2.135575e+02 1.519683e+02 8.600002e+01
    endloop
  endfacet
  facet normal 9.961931e-01 -8.716377e-02 1.336901e-03
    outer loop
      vertex   -2.135575e+02 1.519683e+02 8.600002e+01
      vertex   -2.135682e+02 1.518468e+02 8.600002e+01
      vertex   -2.135602e+02 1.519073e+02 8.400002e+01
    endloop
  endfacet
  facet normal 9.847978e-01 -1.736996e-01 -1.327644e-03
    outer loop
      vertex   -2.135602e+02 1.519073e+02 8.400002e+01
      vertex   -2.135682e+02 1.518468e+02 8.600002e+01
      vertex   -2.135814e+02 1.517871e+02 8.400002e+01
    endloop
  endfacet
  facet normal 9.659534e-01 -2.587129e-01 1.331593e-03
    outer loop
      vertex   -2.135682e+02 1.518468e+02 8.600002e+01
      vertex   -2.135997e+02 1.517289e+02 8.600002e+01
      vertex   -2.135814e+02 1.517871e+02 8.400002e+01
    endloop
  endfacet
  facet normal 9.396867e-01 -3.420339e-01 -1.335911e-03
    outer loop
      vertex   -2.135814e+02 1.517871e+02 8.400002e+01
      vertex   -2.135997e+02 1.517289e+02 8.600002e+01
      vertex   -2.136231e+02 1.516725e+02 8.400002e+01
    endloop
  endfacet
  facet normal 9.062750e-01 -4.226865e-01 1.329490e-03
    outer loop
      vertex   -2.135997e+02 1.517289e+02 8.600002e+01
      vertex   -2.136513e+02 1.516183e+02 8.600002e+01
      vertex   -2.136231e+02 1.516725e+02 8.400002e+01
    endloop
  endfacet
  facet normal 8.660328e-01 -4.999854e-01 -1.331480e-03
    outer loop
      vertex   -2.136231e+02 1.516725e+02 8.400002e+01
      vertex   -2.136513e+02 1.516183e+02 8.600002e+01
      vertex   -2.136841e+02 1.515668e+02 8.400002e+01
    endloop
  endfacet
  facet normal 8.191724e-01 -5.735458e-01 1.331301e-03
    outer loop
      vertex   -2.136513e+02 1.516183e+02 8.600002e+01
      vertex   -2.137213e+02 1.515184e+02 8.600002e+01
      vertex   -2.136841e+02 1.515668e+02 8.400002e+01
    endloop
  endfacet
  facet normal 7.660637e-01 -6.427633e-01 -1.332413e-03
    outer loop
      vertex   -2.136841e+02 1.515668e+02 8.400002e+01
      vertex   -2.137213e+02 1.515184e+02 8.600002e+01
      vertex   -2.137625e+02 1.514733e+02 8.400002e+01
    endloop
  endfacet
  facet normal 7.071062e-01 -7.071062e-01 1.332514e-03
    outer loop
      vertex   -2.137213e+02 1.515184e+02 8.600002e+01
      vertex   -2.138076e+02 1.514321e+02 8.600002e+01
      vertex   -2.137625e+02 1.514733e+02 8.400002e+01
    endloop
  endfacet
  facet normal 6.427633e-01 -7.660637e-01 -1.332413e-03
    outer loop
      vertex   -2.137625e+02 1.514733e+02 8.400002e+01
      vertex   -2.138076e+02 1.514321e+02 8.600002e+01
      vertex   -2.138560e+02 1.513949e+02 8.400002e+01
    endloop
  endfacet
  facet normal 5.735458e-01 -8.191724e-01 1.331301e-03
    outer loop
      vertex   -2.138076e+02 1.514321e+02 8.600002e+01
      vertex   -2.139075e+02 1.513621e+02 8.600002e+01
      vertex   -2.138560e+02 1.513949e+02 8.400002e+01
    endloop
  endfacet
  facet normal 4.999854e-01 -8.660328e-01 -1.331480e-03
    outer loop
      vertex   -2.138560e+02 1.513949e+02 8.400002e+01
      vertex   -2.139075e+02 1.513621e+02 8.600002e+01
      vertex   -2.139617e+02 1.513339e+02 8.400002e+01
    endloop
  endfacet
  facet normal 4.226387e-01 -9.062973e-01 1.331102e-03
    outer loop
      vertex   -2.139075e+02 1.513621e+02 8.600002e+01
      vertex   -2.140181e+02 1.513105e+02 8.600002e+01
      vertex   -2.139617e+02 1.513339e+02 8.400002e+01
    endloop
  endfacet
  facet normal 3.419937e-01 -9.397013e-01 -1.334606e-03
    outer loop
      vertex   -2.139617e+02 1.513339e+02 8.400002e+01
      vertex   -2.140181e+02 1.513105e+02 8.600002e+01
      vertex   -2.140764e+02 1.512922e+02 8.400002e+01
    endloop
  endfacet
  facet normal 2.588609e-01 -9.659137e-01 1.326921e-03
    outer loop
      vertex   -2.140181e+02 1.513105e+02 8.600002e+01
      vertex   -2.141360e+02 1.512789e+02 8.600002e+01
      vertex   -2.140764e+02 1.512922e+02 8.400002e+01
    endloop
  endfacet
  facet normal 1.736996e-01 -9.847978e-01 -1.336483e-03
    outer loop
      vertex   -2.140764e+02 1.512922e+02 8.400002e+01
      vertex   -2.141360e+02 1.512789e+02 8.600002e+01
      vertex   -2.141965e+02 1.512710e+02 8.400002e+01
    endloop
  endfacet
  facet normal 8.703966e-02 -9.962040e-01 1.332436e-03
    outer loop
      vertex   -2.141360e+02 1.512789e+02 8.600002e+01
      vertex   -2.142575e+02 1.512683e+02 8.600002e+01
      vertex   -2.141965e+02 1.512710e+02 8.400002e+01
    endloop
  endfacet
  facet normal 0.000000e+00 -1.000000e+00 0.000000e+00
    outer loop
      vertex   -2.142575e+02 1.512683e+02 8.200002e+01
      vertex   -2.142575e+02 1.512683e+02 8.600002e+01
      vertex   -2.145575e+02 1.512683e+02 8.200002e+01
    endloop
  endfacet
  facet normal 0.000000e+00 -1.000000e+00 0.000000e+00
    outer loop
      vertex   -2.145575e+02 1.512683e+02 8.200002e+01
      vertex   -2.142575e+02 1.512683e+02 8.600002e+01
      vertex   -2.145575e+02 1.512683e+02 8.600002e+01
    endloop
  endfacet
  facet normal 0.000000e+00 0.000000e+00 1.000000e+00
    outer loop
      vertex   -2.145575e+02 1.512683e+02 8.600002e+01
      vertex   -2.142575e+02 1.512683e+02 8.600002e+01
      vertex   -2.135575e+02 1.519683e+02 8.600002e+01
    endloop
  endfacet
  facet normal 0.000000e+00 0.000000e+00 1.000000e+00
    outer loop
      vertex   -2.135575e+02 1.519683e+02 8.600002e+01
      vertex   -2.142575e+02 1.512683e+02 8.600002e+01
      vertex   -2.141360e+02 1.512789e+02 8.600002e+01
    endloop
  endfacet
  facet normal 0.000000e+00 0.000000e+00 1.000000e+00
    outer loop
      vertex   -2.135575e+02 1.519683e+02 8.600002e+01
      vertex   -2.141360e+02 1.512789e+02 8.600002e+01
      vertex   -2.140181e+02 1.513105e+02 8.600002e+01
    endloop
  endfacet
  facet normal 0.000000e+00 0.000000e+00 1.000000e+00
    outer loop
      vertex   -2.140181e+02 1.513105e+02 8.600002e+01
      vertex   -2.139075e+02 1.513621e+02 8.600002e+01
      vertex   -2.135575e+02 1.519683e+02 8.600002e+01
    endloop
  endfacet
  facet normal 0.000000e+00 0.000000e+00 1.000000e+00
    outer loop
      vertex   -2.135575e+02 1.519683e+02 8.600002e+01
      vertex   -2.139075e+02 1.513621e+02 8.600002e+01
      vertex   -2.138076e+02 1.514321e+02 8.600002e+01
    endloop
  endfacet
  facet normal 0.000000e+00 0.000000e+00 1.000000e+00
    outer loop
      vertex   -2.135575e+02 1.519683e+02 8.600002e+01
      vertex   -2.138076e+02 1.514321e+02 8.600002e+01
      vertex   -2.137213e+02 1.515184e+02 8.600002e+01
    endloop
  endfacet
  facet normal 0.000000e+00 0.000000e+00 1.000000e+00
    outer loop
      vertex   -2.137213e+02 1.515184e+02 8.600002e+01
      vertex   -2.136513e+02 1.516183e+02 8.600002e+01
      vertex   -2.135575e+02 1.519683e+02 8.600002e+01
    endloop
  endfacet
  facet normal 0.000000e+00 0.000000e+00 1.000000e+00
    outer loop
      vertex   -2.135575e+02 1.519683e+02 8.600002e+01
      vertex   -2.136513e+02 1.516183e+02 8.600002e+01
      vertex   -2.135997e+02 1.517289e+02 8.600002e+01
    endloop
  endfacet
  facet normal 0.000000e+00 0.000000e+00 1.000000e+00
    outer loop
      vertex   -2.135575e+02 1.519683e+02 8.600002e+01
      vertex   -2.135997e+02 1.517289e+02 8.600002e+01
      vertex   -2.135682e+02 1.518468e+02 8.600002e+01
    endloop
  endfacet
  facet normal 0.000000e+00 -0.000000e+00 1.000000e+00
    outer loop
      vertex   -2.135575e+02 1.519683e+02 8.600002e+01
      vertex   -2.135575e+02 1.555683e+02 8.600002e+01
      vertex   -2.145575e+02 1.512683e+02 8.600002e+01
    endloop
  endfacet
  facet normal 0.000000e+00 0.000000e+00 1.000000e+00
    outer loop
      vertex   -2.145575e+02 1.512683e+02 8.600002e+01
      vertex   -2.135575e+02 1.555683e+02 8.600002e+01
      vertex   -2.145575e+02 1.562683e+02 8.600002e+01
    endloop
  endfacet
  facet normal 0.000000e+00 -0.000000e+00 1.000000e+00
    outer loop
      vertex   -2.145575e+02 1.512683e+02 8.600002e+01
      vertex   -2.145575e+02 1.562683e+02 8.600002e+01
      vertex   -2.160575e+02 1.527683e+02 8.600002e+01
    endloop
  endfacet
  facet normal 0.000000e+00 0.000000e+00 1.000000e+00
    outer loop
      vertex   -2.160575e+02 1.527683e+02 8.600002e+01
      vertex   -2.145575e+02 1.562683e+02 8.600002e+01
      vertex   -2.160575e+02 1.547683e+02 8.600002e+01
    endloop
  endfacet
  facet normal 0.000000e+00 -0.000000e+00 1.000000e+00
    outer loop
      vertex   -2.160575e+02 1.527683e+02 8.600002e+01
      vertex   -2.160575e+02 1.547683e+02 8.600002e+01
      vertex   -2.165575e+02 1.547683e+02 8.600002e+01
    endloop
  endfacet
  facet normal 0.000000e+00 0.000000e+00 1.000000e+00
    outer loop
      vertex   -2.135682e+02 1.556899e+02 8.600002e+01
      vertex   -2.135997e+02 1.558077e+02 8.600002e+01
      vertex   -2.135575e+02 1.555683e+02 8.600002e+01
    endloop
  endfacet
  facet normal 0.000000e+00 0.000000e+00 1.000000e+00
    outer loop
      vertex   -2.135575e+02 1.555683e+02 8.600002e+01
      vertex   -2.135997e+02 1.558077e+02 8.600002e+01
      vertex   -2.136513e+02 1.559183e+02 8.600002e+01
    endloop
  endfacet
  facet normal 0.000000e+00 0.000000e+00 1.000000e+00
    outer loop
      vertex   -2.135575e+02 1.555683e+02 8.600002e+01
      vertex   -2.136513e+02 1.559183e+02 8.600002e+01
      vertex   -2.137213e+02 1.560183e+02 8.600002e+01
    endloop
  endfacet
  facet normal 0.000000e+00 0.000000e+00 1.000000e+00
    outer loop
      vertex   -2.137213e+02 1.560183e+02 8.600002e+01
      vertex   -2.138076e+02 1.561046e+02 8.600002e+01
      vertex   -2.135575e+02 1.555683e+02 8.600002e+01
    endloop
  endfacet
  facet normal 0.000000e+00 0.000000e+00 1.000000e+00
    outer loop
      vertex   -2.135575e+02 1.555683e+02 8.600002e+01
      vertex   -2.138076e+02 1.561046e+02 8.600002e+01
      vertex   -2.139075e+02 1.561745e+02 8.600002e+01
    endloop
  endfacet
  facet normal 0.000000e+00 0.000000e+00 1.000000e+00
    outer loop
      vertex   -2.135575e+02 1.555683e+02 8.600002e+01
      vertex   -2.139075e+02 1.561745e+02 8.600002e+01
      vertex   -2.140181e+02 1.562261e+02 8.600002e+01
    endloop
  endfacet
  facet normal 0.000000e+00 0.000000e+00 1.000000e+00
    outer loop
      vertex   -2.140181e+02 1.562261e+02 8.600002e+01
      vertex   -2.141360e+02 1.562577e+02 8.600002e+01
      vertex   -2.135575e+02 1.555683e+02 8.600002e+01
    endloop
  endfacet
  facet normal 0.000000e+00 0.000000e+00 1.000000e+00
    outer loop
      vertex   -2.135575e+02 1.555683e+02 8.600002e+01
      vertex   -2.141360e+02 1.562577e+02 8.600002e+01
      vertex   -2.142575e+02 1.562683e+02 8.600002e+01
    endloop
  endfacet
  facet normal 0.000000e+00 0.000000e+00 1.000000e+00
    outer loop
      vertex   -2.135575e+02 1.555683e+02 8.600002e+01
      vertex   -2.142575e+02 1.562683e+02 8.600002e+01
      vertex   -2.145575e+02 1.562683e+02 8.600002e+01
    endloop
  endfacet
  facet normal 0.000000e+00 0.000000e+00 1.000000e+00
    outer loop
      vertex   -2.165575e+02 1.547683e+02 8.600002e+01
      vertex   -2.165575e+02 1.527683e+02 8.600002e+01
      vertex   -2.160575e+02 1.527683e+02 8.600002e+01
    endloop
  endfacet
  facet normal 9.990547e-01 4.346975e-02 0.000000e+00
    outer loop
      vertex   -2.135575e+02 1.555683e+02 8.600002e+01
      vertex   -2.135575e+02 1.555683e+02 8.200002e+01
      vertex   -2.135602e+02 1.556293e+02 8.400002e+01
    endloop
  endfacet
  facet normal 9.961931e-01 8.716377e-02 -1.336901e-03
    outer loop
      vertex   -2.135602e+02 1.556293e+02 8.400002e+01
      vertex   -2.135575e+02 1.555683e+02 8.200002e+01
      vertex   -2.135682e+02 1.556899e+02 8.200002e+01
    endloop
  endfacet
  facet normal 9.847978e-01 1.736996e-01 1.327644e-03
    outer loop
      vertex   -2.135602e+02 1.556293e+02 8.400002e+01
      vertex   -2.135682e+02 1.556899e+02 8.200002e+01
      vertex   -2.135814e+02 1.557495e+02 8.400002e+01
    endloop
  endfacet
  facet normal 9.659534e-01 2.587129e-01 -1.331593e-03
    outer loop
      vertex   -2.135814e+02 1.557495e+02 8.400002e+01
      vertex   -2.135682e+02 1.556899e+02 8.200002e+01
      vertex   -2.135997e+02 1.558077e+02 8.200002e+01
    endloop
  endfacet
  facet normal 9.396867e-01 3.420339e-01 1.335911e-03
    outer loop
      vertex   -2.135814e+02 1.557495e+02 8.400002e+01
      vertex   -2.135997e+02 1.558077e+02 8.200002e+01
      vertex   -2.136231e+02 1.558642e+02 8.400002e+01
    endloop
  endfacet
  facet normal 9.062750e-01 4.226865e-01 -1.329490e-03
    outer loop
      vertex   -2.136231e+02 1.558642e+02 8.400002e+01
      vertex   -2.135997e+02 1.558077e+02 8.200002e+01
      vertex   -2.136513e+02 1.559183e+02 8.200002e+01
    endloop
  endfacet
  facet normal 8.660328e-01 4.999854e-01 1.331480e-03
    outer loop
      vertex   -2.136231e+02 1.558642e+02 8.400002e+01
      vertex   -2.136513e+02 1.559183e+02 8.200002e+01
      vertex   -2.136841e+02 1.559698e+02 8.400002e+01
    endloop
  endfacet
  facet normal 8.191724e-01 5.735458e-01 -1.331301e-03
    outer loop
      vertex   -2.136841e+02 1.559698e+02 8.400002e+01
      vertex   -2.136513e+02 1.559183e+02 8.200002e+01
      vertex   -2.137213e+02 1.560183e+02 8.200002e+01
    endloop
  endfacet
  facet normal 7.660637e-01 6.427633e-01 1.332413e-03
    outer loop
      vertex   -2.136841e+02 1.559698e+02 8.400002e+01
      vertex   -2.137213e+02 1.560183e+02 8.200002e+01
      vertex   -2.137625e+02 1.560633e+02 8.400002e+01
    endloop
  endfacet
  facet normal 7.071062e-01 7.071062e-01 -1.332514e-03
    outer loop
      vertex   -2.137625e+02 1.560633e+02 8.400002e+01
      vertex   -2.137213e+02 1.560183e+02 8.200002e+01
      vertex   -2.138076e+02 1.561046e+02 8.200002e+01
    endloop
  endfacet
  facet normal 6.427633e-01 7.660637e-01 1.332413e-03
    outer loop
      vertex   -2.137625e+02 1.560633e+02 8.400002e+01
      vertex   -2.138076e+02 1.561046e+02 8.200002e+01
      vertex   -2.138560e+02 1.561417e+02 8.400002e+01
    endloop
  endfacet
  facet normal 5.735458e-01 8.191724e-01 -1.331301e-03
    outer loop
      vertex   -2.138560e+02 1.561417e+02 8.400002e+01
      vertex   -2.138076e+02 1.561046e+02 8.200002e+01
      vertex   -2.139075e+02 1.561745e+02 8.200002e+01
    endloop
  endfacet
  facet normal 4.999854e-01 8.660328e-01 1.331480e-03
    outer loop
      vertex   -2.138560e+02 1.561417e+02 8.400002e+01
      vertex   -2.139075e+02 1.561745e+02 8.200002e+01
      vertex   -2.139617e+02 1.562027e+02 8.400002e+01
    endloop
  endfacet
  facet normal 4.226387e-01 9.062973e-01 -1.331102e-03
    outer loop
      vertex   -2.139617e+02 1.562027e+02 8.400002e+01
      vertex   -2.139075e+02 1.561745e+02 8.200002e+01
      vertex   -2.140181e+02 1.562261e+02 8.200002e+01
    endloop
  endfacet
  facet normal 3.419937e-01 9.397013e-01 1.334606e-03
    outer loop
      vertex   -2.139617e+02 1.562027e+02 8.400002e+01
      vertex   -2.140181e+02 1.562261e+02 8.200002e+01
      vertex   -2.140764e+02 1.562445e+02 8.400002e+01
    endloop
  endfacet
  facet normal 2.588609e-01 9.659137e-01 -1.326921e-03
    outer loop
      vertex   -2.140764e+02 1.562445e+02 8.400002e+01
      vertex   -2.140181e+02 1.562261e+02 8.200002e+01
      vertex   -2.141360e+02 1.562577e+02 8.200002e+01
    endloop
  endfacet
  facet normal 1.736996e-01 9.847978e-01 1.336483e-03
    outer loop
      vertex   -2.140764e+02 1.562445e+02 8.400002e+01
      vertex   -2.141360e+02 1.562577e+02 8.200002e+01
      vertex   -2.141965e+02 1.562657e+02 8.400002e+01
    endloop
  endfacet
  facet normal 8.716377e-02 9.961931e-01 -1.328636e-03
    outer loop
      vertex   -2.141965e+02 1.562657e+02 8.400002e+01
      vertex   -2.141360e+02 1.562577e+02 8.200002e+01
      vertex   -2.142575e+02 1.562683e+02 8.200002e+01
    endloop
  endfacet
  facet normal 4.373001e-02 9.990434e-01 0.000000e+00
    outer loop
      vertex   -2.141965e+02 1.562657e+02 8.400002e+01
      vertex   -2.142575e+02 1.562683e+02 8.200002e+01
      vertex   -2.142575e+02 1.562683e+02 8.600002e+01
    endloop
  endfacet
  facet normal 8.716377e-02 9.961931e-01 1.328636e-03
    outer loop
      vertex   -2.142575e+02 1.562683e+02 8.600002e+01
      vertex   -2.141360e+02 1.562577e+02 8.600002e+01
      vertex   -2.141965e+02 1.562657e+02 8.400002e+01
    endloop
  endfacet
  facet normal 1.736996e-01 9.847978e-01 -1.336483e-03
    outer loop
      vertex   -2.141965e+02 1.562657e+02 8.400002e+01
      vertex   -2.141360e+02 1.562577e+02 8.600002e+01
      vertex   -2.140764e+02 1.562445e+02 8.400002e+01
    endloop
  endfacet
  facet normal 2.588609e-01 9.659137e-01 1.326921e-03
    outer loop
      vertex   -2.141360e+02 1.562577e+02 8.600002e+01
      vertex   -2.140181e+02 1.562261e+02 8.600002e+01
      vertex   -2.140764e+02 1.562445e+02 8.400002e+01
    endloop
  endfacet
  facet normal 3.419937e-01 9.397013e-01 -1.334606e-03
    outer loop
      vertex   -2.140764e+02 1.562445e+02 8.400002e+01
      vertex   -2.140181e+02 1.562261e+02 8.600002e+01
      vertex   -2.139617e+02 1.562027e+02 8.400002e+01
    endloop
  endfacet
  facet normal 4.226387e-01 9.062973e-01 1.331102e-03
    outer loop
      vertex   -2.140181e+02 1.562261e+02 8.600002e+01
      vertex   -2.139075e+02 1.561745e+02 8.600002e+01
      vertex   -2.139617e+02 1.562027e+02 8.400002e+01
    endloop
  endfacet
  facet normal 4.999854e-01 8.660328e-01 -1.331480e-03
    outer loop
      vertex   -2.139617e+02 1.562027e+02 8.400002e+01
      vertex   -2.139075e+02 1.561745e+02 8.600002e+01
      vertex   -2.138560e+02 1.561417e+02 8.400002e+01
    endloop
  endfacet
  facet normal 5.735458e-01 8.191724e-01 1.331301e-03
    outer loop
      vertex   -2.139075e+02 1.561745e+02 8.600002e+01
      vertex   -2.138076e+02 1.561046e+02 8.600002e+01
      vertex   -2.138560e+02 1.561417e+02 8.400002e+01
    endloop
  endfacet
  facet normal 6.427633e-01 7.660637e-01 -1.332413e-03
    outer loop
      vertex   -2.138560e+02 1.561417e+02 8.400002e+01
      vertex   -2.138076e+02 1.561046e+02 8.600002e+01
      vertex   -2.137625e+02 1.560633e+02 8.400002e+01
    endloop
  endfacet
  facet normal 7.071062e-01 7.071062e-01 1.332514e-03
    outer loop
      vertex   -2.138076e+02 1.561046e+02 8.600002e+01
      vertex   -2.137213e+02 1.560183e+02 8.600002e+01
      vertex   -2.137625e+02 1.560633e+02 8.400002e+01
    endloop
  endfacet
  facet normal 7.660637e-01 6.427633e-01 -1.332413e-03
    outer loop
      vertex   -2.137625e+02 1.560633e+02 8.400002e+01
      vertex   -2.137213e+02 1.560183e+02 8.600002e+01
      vertex   -2.136841e+02 1.559698e+02 8.400002e+01
    endloop
  endfacet
  facet normal 8.191724e-01 5.735458e-01 1.331301e-03
    outer loop
      vertex   -2.137213e+02 1.560183e+02 8.600002e+01
      vertex   -2.136513e+02 1.559183e+02 8.600002e+01
      vertex   -2.136841e+02 1.559698e+02 8.400002e+01
    endloop
  endfacet
  facet normal 8.660328e-01 4.999854e-01 -1.331480e-03
    outer loop
      vertex   -2.136841e+02 1.559698e+02 8.400002e+01
      vertex   -2.136513e+02 1.559183e+02 8.600002e+01
      vertex   -2.136231e+02 1.558642e+02 8.400002e+01
    endloop
  endfacet
  facet normal 9.062750e-01 4.226865e-01 1.329490e-03
    outer loop
      vertex   -2.136513e+02 1.559183e+02 8.600002e+01
      vertex   -2.135997e+02 1.558077e+02 8.600002e+01
      vertex   -2.136231e+02 1.558642e+02 8.400002e+01
    endloop
  endfacet
  facet normal 9.396867e-01 3.420339e-01 -1.335911e-03
    outer loop
      vertex   -2.136231e+02 1.558642e+02 8.400002e+01
      vertex   -2.135997e+02 1.558077e+02 8.600002e+01
      vertex   -2.135814e+02 1.557495e+02 8.400002e+01
    endloop
  endfacet
  facet normal 9.659534e-01 2.587129e-01 1.331593e-03
    outer loop
      vertex   -2.135997e+02 1.558077e+02 8.600002e+01
      vertex   -2.135682e+02 1.556899e+02 8.600002e+01
      vertex   -2.135814e+02 1.557495e+02 8.400002e+01
    endloop
  endfacet
  facet normal 9.847978e-01 1.736996e-01 -1.327644e-03
    outer loop
      vertex   -2.135814e+02 1.557495e+02 8.400002e+01
      vertex   -2.135682e+02 1.556899e+02 8.600002e+01
      vertex   -2.135602e+02 1.556293e+02 8.400002e+01
    endloop
  endfacet
  facet normal 9.961931e-01 8.716377e-02 1.336901e-03
    outer loop
      vertex   -2.135682e+02 1.556899e+02 8.600002e+01
      vertex   -2.135575e+02 1.555683e+02 8.600002e+01
      vertex   -2.135602e+02 1.556293e+02 8.400002e+01
    endloop
  endfacet
  facet normal 0.000000e+00 1.000000e+00 0.000000e+00
    outer loop
      vertex   -2.142575e+02 1.562683e+02 8.600002e+01
      vertex   -2.142575e+02 1.562683e+02 8.200002e+01
      vertex   -2.145575e+02 1.562683e+02 8.600002e+01
    endloop
  endfacet
  facet normal 0.000000e+00 1.000000e+00 0.000000e+00
    outer loop
      vertex   -2.145575e+02 1.562683e+02 8.600002e+01
      vertex   -2.142575e+02 1.562683e+02 8.200002e+01
      vertex   -2.145575e+02 1.562683e+02 8.200002e+01
    endloop
  endfacet
  facet normal -7.071068e-01 7.071068e-01 0.000000e+00
    outer loop
      vertex   -2.145575e+02 1.562683e+02 8.600002e+01
      vertex   -2.145575e+02 1.562683e+02 8.200002e+01
      vertex   -2.160575e+02 1.547683e+02 8.600002e+01
    endloop
  endfacet
  facet normal -7.071068e-01 7.071068e-01 0.000000e+00
    outer loop
      vertex   -2.160575e+02 1.547683e+02 8.600002e+01
      vertex   -2.145575e+02 1.562683e+02 8.200002e+01
      vertex   -2.160575e+02 1.547683e+02 8.200002e+01
    endloop
  endfacet
  facet normal -7.071068e-01 -7.071068e-01 0.000000e+00
    outer loop
      vertex   -2.145575e+02 1.512683e+02 8.200002e+01
      vertex   -2.145575e+02 1.512683e+02 8.600002e+01
      vertex   -2.160575e+02 1.527683e+02 8.200002e+01
    endloop
  endfacet
  facet normal -7.071068e-01 -7.071068e-01 0.000000e+00
    outer loop
      vertex   -2.160575e+02 1.527683e+02 8.200002e+01
      vertex   -2.145575e+02 1.512683e+02 8.600002e+01
      vertex   -2.160575e+02 1.527683e+02 8.600002e+01
    endloop
  endfacet
  facet normal 0.000000e+00 1.000000e+00 0.000000e+00
    outer loop
      vertex   -2.165575e+02 1.547683e+02 8.600000e+01
      vertex   -2.165575e+02 1.547683e+02 8.600002e+01
      vertex   -2.165575e+02 1.547683e+02 8.600000e+01
    endloop
  endfacet
  facet normal 0.000000e+00 1.000000e+00 -0.000000e+00
    outer loop
      vertex   -2.165575e+02 1.547683e+02 8.600000e+01
      vertex   -2.165575e+02 1.547683e+02 8.600002e+01
      vertex   -2.160575e+02 1.547683e+02 8.600002e+01
    endloop
  endfacet
  facet normal -0.000000e+00 1.000000e+00 0.000000e+00
    outer loop
      vertex   -2.165575e+02 1.547683e+02 8.600000e+01
      vertex   -2.160575e+02 1.547683e+02 8.600002e+01
      vertex   -2.160575e+02 1.547683e+02 8.200002e+01
    endloop
  endfacet
  facet normal 0.000000e+00 1.000000e+00 0.000000e+00
    outer loop
      vertex   -2.160575e+02 1.547683e+02 8.200002e+01
      vertex   -2.165575e+02 1.547683e+02 8.200002e+01
      vertex   -2.165575e+02 1.547683e+02 8.600000e+01
    endloop
  endfacet
  facet normal 1.000000e+00 -0.000000e+00 0.000000e+00
    outer loop
      vertex   -2.135575e+02 1.519683e+02 8.600002e+01
      vertex   -2.135575e+02 1.519683e+02 8.200002e+01
      vertex   -2.135575e+02 1.555683e+02 8.600002e+01
    endloop
  endfacet
  facet normal 1.000000e+00 0.000000e+00 0.000000e+00
    outer loop
      vertex   -2.135575e+02 1.555683e+02 8.600002e+01
      vertex   -2.135575e+02 1.519683e+02 8.200002e+01
      vertex   -2.135575e+02 1.555683e+02 8.200002e+01
    endloop
  endfacet
  facet normal -1.000000e+00 0.000000e+00 0.000000e+00
    outer loop
      vertex   -2.165575e+02 1.547683e+02 8.600000e+01
      vertex   -2.165575e+02 1.527683e+02 8.600000e+01
      vertex   -2.165575e+02 1.547683e+02 8.600002e+01
    endloop
  endfacet
  facet normal -1.000000e+00 -0.000000e+00 0.000000e+00
    outer loop
      vertex   -2.165575e+02 1.547683e+02 8.600002e+01
      vertex   -2.165575e+02 1.527683e+02 8.600000e+01
      vertex   -2.165575e+02 1.527683e+02 8.600002e+01
    endloop
  endfacet
  facet normal 0.000000e+00 0.000000e+00 1.000000e+00
    outer loop
      vertex   -2.165575e+02 1.527683e+02 8.600000e+01
      vertex   -2.165575e+02 1.527683e+02 8.600000e+01
      vertex   -2.165575e+02 9.686830e+01 8.600000e+01
    endloop
  endfacet
  facet normal 0.000000e+00 0.000000e+00 1.000000e+00
    outer loop
      vertex   -2.165575e+02 9.686830e+01 8.600000e+01
      vertex   -2.165575e+02 1.527683e+02 8.600000e+01
      vertex   -2.205575e+02 1.328683e+02 8.600000e+01
    endloop
  endfacet
  facet normal 0.000000e+00 0.000000e+00 1.000000e+00
    outer loop
      vertex   -2.165575e+02 9.686830e+01 8.600000e+01
      vertex   -2.205575e+02 1.328683e+02 8.600000e+01
      vertex   -2.205575e+02 9.686830e+01 8.600000e+01
    endloop
  endfacet
  facet normal 0.000000e+00 0.000000e+00 1.000000e+00
    outer loop
      vertex   -2.205575e+02 1.328683e+02 8.600000e+01
      vertex   -2.165575e+02 1.527683e+02 8.600000e+01
      vertex   -2.205575e+02 1.688683e+02 8.600000e+01
    endloop
  endfacet
  facet normal 0.000000e+00 0.000000e+00 1.000000e+00
    outer loop
      vertex   -2.205575e+02 1.688683e+02 8.600000e+01
      vertex   -2.165575e+02 1.527683e+02 8.600000e+01
      vertex   -2.165575e+02 1.547683e+02 8.600000e+01
    endloop
  endfacet
  facet normal -0.000000e+00 0.000000e+00 1.000000e+00
    outer loop
      vertex   -2.205575e+02 1.688683e+02 8.600000e+01
      vertex   -2.165575e+02 1.547683e+02 8.600000e+01
      vertex   -2.165575e+02 1.728683e+02 8.600000e+01
    endloop
  endfacet
  facet normal 0.000000e+00 0.000000e+00 0.000000e+00
    outer loop
      vertex   -2.165575e+02 1.728683e+02 8.600000e+01
      vertex   -2.165575e+02 1.547683e+02 8.600000e+01
      vertex   -2.165575e+02 1.547683e+02 8.600000e+01
    endloop
  endfacet
  facet normal 0.000000e+00 -1.000000e+00 0.000000e+00
    outer loop
      vertex   -2.165575e+02 1.109683e+02 1.800000e+01
      vertex   -2.165575e+02 1.109683e+02 1.400000e+01
      vertex   -2.160575e+02 1.109683e+02 1.800000e+01
    endloop
  endfacet
  facet normal 0.000000e+00 -1.000000e+00 -0.000000e+00
    outer loop
      vertex   -2.160575e+02 1.109683e+02 1.800000e+01
      vertex   -2.165575e+02 1.109683e+02 1.400000e+01
      vertex   -2.160575e+02 1.109683e+02 1.400000e+01
    endloop
  endfacet
  facet normal 4.360531e-02 -9.990488e-01 0.000000e+00
    outer loop
      vertex   -2.142575e+02 1.094683e+02 1.800000e+01
      vertex   -2.142575e+02 1.094683e+02 1.400000e+01
      vertex   -2.141965e+02 1.094710e+02 1.600000e+01
    endloop
  endfacet
  facet normal 8.716377e-02 -9.961931e-01 -1.332437e-03
    outer loop
      vertex   -2.141965e+02 1.094710e+02 1.600000e+01
      vertex   -2.142575e+02 1.094683e+02 1.400000e+01
      vertex   -2.141360e+02 1.094789e+02 1.400000e+01
    endloop
  endfacet
  facet normal 1.736389e-01 -9.848085e-01 1.330848e-03
    outer loop
      vertex   -2.141965e+02 1.094710e+02 1.600000e+01
      vertex   -2.141360e+02 1.094789e+02 1.400000e+01
      vertex   -2.140764e+02 1.094921e+02 1.600000e+01
    endloop
  endfacet
  facet normal 2.588025e-01 -9.659293e-01 -1.332449e-03
    outer loop
      vertex   -2.140764e+02 1.094921e+02 1.600000e+01
      vertex   -2.141360e+02 1.094789e+02 1.400000e+01
      vertex   -2.140181e+02 1.095105e+02 1.400000e+01
    endloop
  endfacet
  facet normal 3.419937e-01 -9.397013e-01 1.331022e-03
    outer loop
      vertex   -2.140764e+02 1.094921e+02 1.600000e+01
      vertex   -2.140181e+02 1.095105e+02 1.400000e+01
      vertex   -2.139617e+02 1.095339e+02 1.600000e+01
    endloop
  endfacet
  facet normal 4.225873e-01 -9.063212e-01 -1.332831e-03
    outer loop
      vertex   -2.139617e+02 1.095339e+02 1.600000e+01
      vertex   -2.140181e+02 1.095105e+02 1.400000e+01
      vertex   -2.139075e+02 1.095621e+02 1.400000e+01
    endloop
  endfacet
  facet normal 5.000323e-01 -8.660057e-01 1.333132e-03
    outer loop
      vertex   -2.139617e+02 1.095339e+02 1.600000e+01
      vertex   -2.139075e+02 1.095621e+02 1.400000e+01
      vertex   -2.138560e+02 1.095949e+02 1.600000e+01
    endloop
  endfacet
  facet normal 5.735877e-01 -8.191431e-01 -1.329739e-03
    outer loop
      vertex   -2.138560e+02 1.095949e+02 1.600000e+01
      vertex   -2.139075e+02 1.095621e+02 1.400000e+01
      vertex   -2.138076e+02 1.096321e+02 1.400000e+01
    endloop
  endfacet
  facet normal 6.427633e-01 -7.660637e-01 1.332414e-03
    outer loop
      vertex   -2.138560e+02 1.095949e+02 1.600000e+01
      vertex   -2.138076e+02 1.096321e+02 1.400000e+01
      vertex   -2.137625e+02 1.096733e+02 1.600000e+01
    endloop
  endfacet
  facet normal 7.070749e-01 -7.071374e-01 -1.331165e-03
    outer loop
      vertex   -2.137625e+02 1.096733e+02 1.600000e+01
      vertex   -2.138076e+02 1.096321e+02 1.400000e+01
      vertex   -2.137213e+02 1.097183e+02 1.400000e+01
    endloop
  endfacet
  facet normal 7.660379e-01 -6.427940e-01 1.333639e-03
    outer loop
      vertex   -2.137625e+02 1.096733e+02 1.600000e+01
      vertex   -2.137213e+02 1.097183e+02 1.400000e+01
      vertex   -2.136841e+02 1.097668e+02 1.600000e+01
    endloop
  endfacet
  facet normal 8.191930e-01 -5.735164e-01 -1.332395e-03
    outer loop
      vertex   -2.136841e+02 1.097668e+02 1.600000e+01
      vertex   -2.137213e+02 1.097183e+02 1.400000e+01
      vertex   -2.136513e+02 1.098183e+02 1.400000e+01
    endloop
  endfacet
  facet normal 8.660484e-01 -4.999584e-01 1.330526e-03
    outer loop
      vertex   -2.136841e+02 1.097668e+02 1.600000e+01
      vertex   -2.136513e+02 1.098183e+02 1.400000e+01
      vertex   -2.136231e+02 1.098725e+02 1.600000e+01
    endloop
  endfacet
  facet normal 9.062861e-01 -4.226626e-01 -1.330297e-03
    outer loop
      vertex   -2.136231e+02 1.098725e+02 1.600000e+01
      vertex   -2.136513e+02 1.098183e+02 1.400000e+01
      vertex   -2.135997e+02 1.099289e+02 1.400000e+01
    endloop
  endfacet
  facet normal 9.396867e-01 -3.420339e-01 1.334607e-03
    outer loop
      vertex   -2.136231e+02 1.098725e+02 1.600000e+01
      vertex   -2.135997e+02 1.099289e+02 1.400000e+01
      vertex   -2.135814e+02 1.099871e+02 1.600000e+01
    endloop
  endfacet
  facet normal 9.659449e-01 -2.587442e-01 -1.331594e-03
    outer loop
      vertex   -2.135814e+02 1.099871e+02 1.600000e+01
      vertex   -2.135997e+02 1.099289e+02 1.400000e+01
      vertex   -2.135682e+02 1.100467e+02 1.400000e+01
    endloop
  endfacet
  facet normal 9.847978e-01 -1.736996e-01 1.328307e-03
    outer loop
      vertex   -2.135814e+02 1.099871e+02 1.600000e+01
      vertex   -2.135682e+02 1.100467e+02 1.400000e+01
      vertex   -2.135602e+02 1.101073e+02 1.600000e+01
    endloop
  endfacet
  facet normal 9.961931e-01 -8.716377e-02 -1.336569e-03
    outer loop
      vertex   -2.135602e+02 1.101073e+02 1.600000e+01
      vertex   -2.135682e+02 1.100467e+02 1.400000e+01
      vertex   -2.135575e+02 1.101683e+02 1.400000e+01
    endloop
  endfacet
  facet normal 9.990545e-01 -4.347517e-02 0.000000e+00
    outer loop
      vertex   -2.135602e+02 1.101073e+02 1.600000e+01
      vertex   -2.135575e+02 1.101683e+02 1.400000e+01
      vertex   -2.135575e+02 1.101683e+02 1.800000e+01
    endloop
  endfacet
  facet normal 9.961931e-01 -8.716377e-02 1.336569e-03
    outer loop
      vertex   -2.135575e+02 1.101683e+02 1.800000e+01
      vertex   -2.135682e+02 1.100467e+02 1.800000e+01
      vertex   -2.135602e+02 1.101073e+02 1.600000e+01
    endloop
  endfacet
  facet normal 9.847978e-01 -1.736996e-01 -1.328307e-03
    outer loop
      vertex   -2.135602e+02 1.101073e+02 1.600000e+01
      vertex   -2.135682e+02 1.100467e+02 1.800000e+01
      vertex   -2.135814e+02 1.099871e+02 1.600000e+01
    endloop
  endfacet
  facet normal 9.659449e-01 -2.587442e-01 1.331593e-03
    outer loop
      vertex   -2.135682e+02 1.100467e+02 1.800000e+01
      vertex   -2.135997e+02 1.099289e+02 1.800000e+01
      vertex   -2.135814e+02 1.099871e+02 1.600000e+01
    endloop
  endfacet
  facet normal 9.396867e-01 -3.420339e-01 -1.334606e-03
    outer loop
      vertex   -2.135814e+02 1.099871e+02 1.600000e+01
      vertex   -2.135997e+02 1.099289e+02 1.800000e+01
      vertex   -2.136231e+02 1.098725e+02 1.600000e+01
    endloop
  endfacet
  facet normal 9.062861e-01 -4.226626e-01 1.330296e-03
    outer loop
      vertex   -2.135997e+02 1.099289e+02 1.800000e+01
      vertex   -2.136513e+02 1.098183e+02 1.800000e+01
      vertex   -2.136231e+02 1.098725e+02 1.600000e+01
    endloop
  endfacet
  facet normal 8.660484e-01 -4.999584e-01 -1.330526e-03
    outer loop
      vertex   -2.136231e+02 1.098725e+02 1.600000e+01
      vertex   -2.136513e+02 1.098183e+02 1.800000e+01
      vertex   -2.136841e+02 1.097668e+02 1.600000e+01
    endloop
  endfacet
  facet normal 8.191930e-01 -5.735164e-01 1.332395e-03
    outer loop
      vertex   -2.136513e+02 1.098183e+02 1.800000e+01
      vertex   -2.137213e+02 1.097183e+02 1.800000e+01
      vertex   -2.136841e+02 1.097668e+02 1.600000e+01
    endloop
  endfacet
  facet normal 7.660379e-01 -6.427940e-01 -1.333639e-03
    outer loop
      vertex   -2.136841e+02 1.097668e+02 1.600000e+01
      vertex   -2.137213e+02 1.097183e+02 1.800000e+01
      vertex   -2.137625e+02 1.096733e+02 1.600000e+01
    endloop
  endfacet
  facet normal 7.070749e-01 -7.071374e-01 1.331165e-03
    outer loop
      vertex   -2.137213e+02 1.097183e+02 1.800000e+01
      vertex   -2.138076e+02 1.096321e+02 1.800000e+01
      vertex   -2.137625e+02 1.096733e+02 1.600000e+01
    endloop
  endfacet
  facet normal 6.427633e-01 -7.660637e-01 -1.332413e-03
    outer loop
      vertex   -2.137625e+02 1.096733e+02 1.600000e+01
      vertex   -2.138076e+02 1.096321e+02 1.800000e+01
      vertex   -2.138560e+02 1.095949e+02 1.600000e+01
    endloop
  endfacet
  facet normal 5.735877e-01 -8.191431e-01 1.329738e-03
    outer loop
      vertex   -2.138076e+02 1.096321e+02 1.800000e+01
      vertex   -2.139075e+02 1.095621e+02 1.800000e+01
      vertex   -2.138560e+02 1.095949e+02 1.600000e+01
    endloop
  endfacet
  facet normal 5.000323e-01 -8.660057e-01 -1.333131e-03
    outer loop
      vertex   -2.138560e+02 1.095949e+02 1.600000e+01
      vertex   -2.139075e+02 1.095621e+02 1.800000e+01
      vertex   -2.139617e+02 1.095339e+02 1.600000e+01
    endloop
  endfacet
  facet normal 4.225873e-01 -9.063212e-01 1.332831e-03
    outer loop
      vertex   -2.139075e+02 1.095621e+02 1.800000e+01
      vertex   -2.140181e+02 1.095105e+02 1.800000e+01
      vertex   -2.139617e+02 1.095339e+02 1.600000e+01
    endloop
  endfacet
  facet normal 3.419937e-01 -9.397013e-01 -1.331021e-03
    outer loop
      vertex   -2.139617e+02 1.095339e+02 1.600000e+01
      vertex   -2.140181e+02 1.095105e+02 1.800000e+01
      vertex   -2.140764e+02 1.094921e+02 1.600000e+01
    endloop
  endfacet
  facet normal 2.588025e-01 -9.659293e-01 1.332448e-03
    outer loop
      vertex   -2.140181e+02 1.095105e+02 1.800000e+01
      vertex   -2.141360e+02 1.094789e+02 1.800000e+01
      vertex   -2.140764e+02 1.094921e+02 1.600000e+01
    endloop
  endfacet
  facet normal 1.736389e-01 -9.848085e-01 -1.330848e-03
    outer loop
      vertex   -2.140764e+02 1.094921e+02 1.600000e+01
      vertex   -2.141360e+02 1.094789e+02 1.800000e+01
      vertex   -2.141965e+02 1.094710e+02 1.600000e+01
    endloop
  endfacet
  facet normal 8.716377e-02 -9.961931e-01 1.332436e-03
    outer loop
      vertex   -2.141360e+02 1.094789e+02 1.800000e+01
      vertex   -2.142575e+02 1.094683e+02 1.800000e+01
      vertex   -2.141965e+02 1.094710e+02 1.600000e+01
    endloop
  endfacet
  facet normal 0.000000e+00 -1.000000e+00 0.000000e+00
    outer loop
      vertex   -2.142575e+02 1.094683e+02 1.400000e+01
      vertex   -2.142575e+02 1.094683e+02 1.800000e+01
      vertex   -2.145575e+02 1.094683e+02 1.400000e+01
    endloop
  endfacet
  facet normal 0.000000e+00 -1.000000e+00 0.000000e+00
    outer loop
      vertex   -2.145575e+02 1.094683e+02 1.400000e+01
      vertex   -2.142575e+02 1.094683e+02 1.800000e+01
      vertex   -2.145575e+02 1.094683e+02 1.800000e+01
    endloop
  endfacet
  facet normal 0.000000e+00 0.000000e+00 1.000000e+00
    outer loop
      vertex   -2.165575e+02 1.109683e+02 1.800000e+01
      vertex   -2.160575e+02 1.109683e+02 1.800000e+01
      vertex   -2.165575e+02 1.129683e+02 1.800000e+01
    endloop
  endfacet
  facet normal -0.000000e+00 0.000000e+00 1.000000e+00
    outer loop
      vertex   -2.165575e+02 1.129683e+02 1.800000e+01
      vertex   -2.160575e+02 1.109683e+02 1.800000e+01
      vertex   -2.160575e+02 1.129683e+02 1.800000e+01
    endloop
  endfacet
  facet normal -0.000000e+00 0.000000e+00 1.000000e+00
    outer loop
      vertex   -2.160575e+02 1.129683e+02 1.800000e+01
      vertex   -2.160575e+02 1.109683e+02 1.800000e+01
      vertex   -2.145575e+02 1.144683e+02 1.800000e+01
    endloop
  endfacet
  facet normal 0.000000e+00 0.000000e+00 1.000000e+00
    outer loop
      vertex   -2.145575e+02 1.144683e+02 1.800000e+01
      vertex   -2.160575e+02 1.109683e+02 1.800000e+01
      vertex   -2.145575e+02 1.094683e+02 1.800000e+01
    endloop
  endfacet
  facet normal 0.000000e+00 0.000000e+00 1.000000e+00
    outer loop
      vertex   -2.145575e+02 1.144683e+02 1.800000e+01
      vertex   -2.145575e+02 1.094683e+02 1.800000e+01
      vertex   -2.135575e+02 1.137683e+02 1.800000e+01
    endloop
  endfacet
  facet normal 0.000000e+00 0.000000e+00 1.000000e+00
    outer loop
      vertex   -2.135575e+02 1.137683e+02 1.800000e+01
      vertex   -2.145575e+02 1.094683e+02 1.800000e+01
      vertex   -2.135575e+02 1.101683e+02 1.800000e+01
    endloop
  endfacet
  facet normal 0.000000e+00 0.000000e+00 1.000000e+00
    outer loop
      vertex   -2.135575e+02 1.101683e+02 1.800000e+01
      vertex   -2.145575e+02 1.094683e+02 1.800000e+01
      vertex   -2.142575e+02 1.094683e+02 1.800000e+01
    endloop
  endfacet
  facet normal 0.000000e+00 0.000000e+00 1.000000e+00
    outer loop
      vertex   -2.135575e+02 1.101683e+02 1.800000e+01
      vertex   -2.142575e+02 1.094683e+02 1.800000e+01
      vertex   -2.141360e+02 1.094789e+02 1.800000e+01
    endloop
  endfacet
  facet normal 0.000000e+00 0.000000e+00 1.000000e+00
    outer loop
      vertex   -2.141360e+02 1.094789e+02 1.800000e+01
      vertex   -2.140181e+02 1.095105e+02 1.800000e+01
      vertex   -2.135575e+02 1.101683e+02 1.800000e+01
    endloop
  endfacet
  facet normal 0.000000e+00 0.000000e+00 1.000000e+00
    outer loop
      vertex   -2.135575e+02 1.101683e+02 1.800000e+01
      vertex   -2.140181e+02 1.095105e+02 1.800000e+01
      vertex   -2.139075e+02 1.095621e+02 1.800000e+01
    endloop
  endfacet
  facet normal 0.000000e+00 0.000000e+00 1.000000e+00
    outer loop
      vertex   -2.135575e+02 1.101683e+02 1.800000e+01
      vertex   -2.139075e+02 1.095621e+02 1.800000e+01
      vertex   -2.138076e+02 1.096321e+02 1.800000e+01
    endloop
  endfacet
  facet normal 0.000000e+00 0.000000e+00 1.000000e+00
    outer loop
      vertex   -2.138076e+02 1.096321e+02 1.800000e+01
      vertex   -2.137213e+02 1.097183e+02 1.800000e+01
      vertex   -2.135575e+02 1.101683e+02 1.800000e+01
    endloop
  endfacet
  facet normal 0.000000e+00 0.000000e+00 1.000000e+00
    outer loop
      vertex   -2.135575e+02 1.101683e+02 1.800000e+01
      vertex   -2.137213e+02 1.097183e+02 1.800000e+01
      vertex   -2.136513e+02 1.098183e+02 1.800000e+01
    endloop
  endfacet
  facet normal 0.000000e+00 0.000000e+00 1.000000e+00
    outer loop
      vertex   -2.135575e+02 1.101683e+02 1.800000e+01
      vertex   -2.136513e+02 1.098183e+02 1.800000e+01
      vertex   -2.135997e+02 1.099289e+02 1.800000e+01
    endloop
  endfacet
  facet normal 0.000000e+00 0.000000e+00 1.000000e+00
    outer loop
      vertex   -2.135997e+02 1.099289e+02 1.800000e+01
      vertex   -2.135682e+02 1.100467e+02 1.800000e+01
      vertex   -2.135575e+02 1.101683e+02 1.800000e+01
    endloop
  endfacet
  facet normal 0.000000e+00 0.000000e+00 1.000000e+00
    outer loop
      vertex   -2.135682e+02 1.138898e+02 1.800000e+01
      vertex   -2.135997e+02 1.140077e+02 1.800000e+01
      vertex   -2.135575e+02 1.137683e+02 1.800000e+01
    endloop
  endfacet
  facet normal 0.000000e+00 0.000000e+00 1.000000e+00
    outer loop
      vertex   -2.135575e+02 1.137683e+02 1.800000e+01
      vertex   -2.135997e+02 1.140077e+02 1.800000e+01
      vertex   -2.136513e+02 1.141183e+02 1.800000e+01
    endloop
  endfacet
  facet normal 0.000000e+00 0.000000e+00 1.000000e+00
    outer loop
      vertex   -2.135575e+02 1.137683e+02 1.800000e+01
      vertex   -2.136513e+02 1.141183e+02 1.800000e+01
      vertex   -2.137213e+02 1.142182e+02 1.800000e+01
    endloop
  endfacet
  facet normal 0.000000e+00 0.000000e+00 1.000000e+00
    outer loop
      vertex   -2.137213e+02 1.142182e+02 1.800000e+01
      vertex   -2.138076e+02 1.143045e+02 1.800000e+01
      vertex   -2.135575e+02 1.137683e+02 1.800000e+01
    endloop
  endfacet
  facet normal 0.000000e+00 0.000000e+00 1.000000e+00
    outer loop
      vertex   -2.135575e+02 1.137683e+02 1.800000e+01
      vertex   -2.138076e+02 1.143045e+02 1.800000e+01
      vertex   -2.139075e+02 1.143745e+02 1.800000e+01
    endloop
  endfacet
  facet normal 0.000000e+00 0.000000e+00 1.000000e+00
    outer loop
      vertex   -2.135575e+02 1.137683e+02 1.800000e+01
      vertex   -2.139075e+02 1.143745e+02 1.800000e+01
      vertex   -2.140181e+02 1.144261e+02 1.800000e+01
    endloop
  endfacet
  facet normal 0.000000e+00 0.000000e+00 1.000000e+00
    outer loop
      vertex   -2.140181e+02 1.144261e+02 1.800000e+01
      vertex   -2.141360e+02 1.144577e+02 1.800000e+01
      vertex   -2.135575e+02 1.137683e+02 1.800000e+01
    endloop
  endfacet
  facet normal 0.000000e+00 0.000000e+00 1.000000e+00
    outer loop
      vertex   -2.135575e+02 1.137683e+02 1.800000e+01
      vertex   -2.141360e+02 1.144577e+02 1.800000e+01
      vertex   -2.142575e+02 1.144683e+02 1.800000e+01
    endloop
  endfacet
  facet normal 0.000000e+00 0.000000e+00 1.000000e+00
    outer loop
      vertex   -2.135575e+02 1.137683e+02 1.800000e+01
      vertex   -2.142575e+02 1.144683e+02 1.800000e+01
      vertex   -2.145575e+02 1.144683e+02 1.800000e+01
    endloop
  endfacet
  facet normal 9.990545e-01 4.347517e-02 0.000000e+00
    outer loop
      vertex   -2.135575e+02 1.137683e+02 1.800000e+01
      vertex   -2.135575e+02 1.137683e+02 1.400000e+01
      vertex   -2.135602e+02 1.138293e+02 1.600000e+01
    endloop
  endfacet
  facet normal 9.961936e-01 8.715834e-02 -1.336403e-03
    outer loop
      vertex   -2.135602e+02 1.138293e+02 1.600000e+01
      vertex   -2.135575e+02 1.137683e+02 1.400000e+01
      vertex   -2.135682e+02 1.138898e+02 1.400000e+01
    endloop
  endfacet
  facet normal 9.847978e-01 1.736996e-01 1.328970e-03
    outer loop
      vertex   -2.135602e+02 1.138293e+02 1.600000e+01
      vertex   -2.135682e+02 1.138898e+02 1.400000e+01
      vertex   -2.135814e+02 1.139495e+02 1.600000e+01
    endloop
  endfacet
  facet normal 9.659449e-01 2.587442e-01 -1.330607e-03
    outer loop
      vertex   -2.135814e+02 1.139495e+02 1.600000e+01
      vertex   -2.135682e+02 1.138898e+02 1.400000e+01
      vertex   -2.135997e+02 1.140077e+02 1.400000e+01
    endloop
  endfacet
  facet normal 9.396940e-01 3.420138e-01 1.335259e-03
    outer loop
      vertex   -2.135814e+02 1.139495e+02 1.600000e+01
      vertex   -2.135997e+02 1.140077e+02 1.400000e+01
      vertex   -2.136231e+02 1.140641e+02 1.600000e+01
    endloop
  endfacet
  facet normal 9.062750e-01 4.226865e-01 -1.331103e-03
    outer loop
      vertex   -2.136231e+02 1.140641e+02 1.600000e+01
      vertex   -2.135997e+02 1.140077e+02 1.400000e+01
      vertex   -2.136513e+02 1.141183e+02 1.400000e+01
    endloop
  endfacet
  facet normal 8.660328e-01 4.999854e-01 1.329573e-03
    outer loop
      vertex   -2.136231e+02 1.140641e+02 1.600000e+01
      vertex   -2.136513e+02 1.141183e+02 1.400000e+01
      vertex   -2.136841e+02 1.141698e+02 1.600000e+01
    endloop
  endfacet
  facet normal 8.191930e-01 5.735164e-01 -1.332395e-03
    outer loop
      vertex   -2.136841e+02 1.141698e+02 1.600000e+01
      vertex   -2.136513e+02 1.141183e+02 1.400000e+01
      vertex   -2.137213e+02 1.142182e+02 1.400000e+01
    endloop
  endfacet
  facet normal 7.660637e-01 6.427633e-01 1.332414e-03
    outer loop
      vertex   -2.136841e+02 1.141698e+02 1.600000e+01
      vertex   -2.137213e+02 1.142182e+02 1.400000e+01
      vertex   -2.137625e+02 1.142633e+02 1.600000e+01
    endloop
  endfacet
  facet normal 7.070749e-01 7.071374e-01 -1.333863e-03
    outer loop
      vertex   -2.137625e+02 1.142633e+02 1.600000e+01
      vertex   -2.137213e+02 1.142182e+02 1.400000e+01
      vertex   -2.138076e+02 1.143045e+02 1.400000e+01
    endloop
  endfacet
  facet normal 6.427633e-01 7.660637e-01 1.329491e-03
    outer loop
      vertex   -2.137625e+02 1.142633e+02 1.600000e+01
      vertex   -2.138076e+02 1.143045e+02 1.400000e+01
      vertex   -2.138560e+02 1.143417e+02 1.600000e+01
    endloop
  endfacet
  facet normal 5.735877e-01 8.191431e-01 -1.332864e-03
    outer loop
      vertex   -2.138560e+02 1.143417e+02 1.600000e+01
      vertex   -2.138076e+02 1.143045e+02 1.400000e+01
      vertex   -2.139075e+02 1.143745e+02 1.400000e+01
    endloop
  endfacet
  facet normal 4.999854e-01 8.660328e-01 1.331480e-03
    outer loop
      vertex   -2.138560e+02 1.143417e+02 1.600000e+01
      vertex   -2.139075e+02 1.143745e+02 1.400000e+01
      vertex   -2.139617e+02 1.144027e+02 1.600000e+01
    endloop
  endfacet
  facet normal 4.225873e-01 9.063212e-01 -1.332831e-03
    outer loop
      vertex   -2.139617e+02 1.144027e+02 1.600000e+01
      vertex   -2.139075e+02 1.143745e+02 1.400000e+01
      vertex   -2.140181e+02 1.144261e+02 1.400000e+01
    endloop
  endfacet
  facet normal 3.419937e-01 9.397013e-01 1.331022e-03
    outer loop
      vertex   -2.139617e+02 1.144027e+02 1.600000e+01
      vertex   -2.140181e+02 1.144261e+02 1.400000e+01
      vertex   -2.140764e+02 1.144444e+02 1.600000e+01
    endloop
  endfacet
  facet normal 2.588609e-01 9.659137e-01 -1.330607e-03
    outer loop
      vertex   -2.140764e+02 1.144444e+02 1.600000e+01
      vertex   -2.140181e+02 1.144261e+02 1.400000e+01
      vertex   -2.141360e+02 1.144577e+02 1.400000e+01
    endloop
  endfacet
  facet normal 1.736996e-01 9.847978e-01 1.332727e-03
    outer loop
      vertex   -2.140764e+02 1.144444e+02 1.600000e+01
      vertex   -2.141360e+02 1.144577e+02 1.400000e+01
      vertex   -2.141965e+02 1.144656e+02 1.600000e+01
    endloop
  endfacet
  facet normal 8.716377e-02 9.961931e-01 -1.332437e-03
    outer loop
      vertex   -2.141965e+02 1.144656e+02 1.600000e+01
      vertex   -2.141360e+02 1.144577e+02 1.400000e+01
      vertex   -2.142575e+02 1.144683e+02 1.400000e+01
    endloop
  endfacet
  facet normal 4.360531e-02 9.990488e-01 0.000000e+00
    outer loop
      vertex   -2.141965e+02 1.144656e+02 1.600000e+01
      vertex   -2.142575e+02 1.144683e+02 1.400000e+01
      vertex   -2.142575e+02 1.144683e+02 1.800000e+01
    endloop
  endfacet
  facet normal 8.716377e-02 9.961931e-01 1.332436e-03
    outer loop
      vertex   -2.142575e+02 1.144683e+02 1.800000e+01
      vertex   -2.141360e+02 1.144577e+02 1.800000e+01
      vertex   -2.141965e+02 1.144656e+02 1.600000e+01
    endloop
  endfacet
  facet normal 1.736996e-01 9.847978e-01 -1.332726e-03
    outer loop
      vertex   -2.141965e+02 1.144656e+02 1.600000e+01
      vertex   -2.141360e+02 1.144577e+02 1.800000e+01
      vertex   -2.140764e+02 1.144444e+02 1.600000e+01
    endloop
  endfacet
  facet normal 2.588609e-01 9.659137e-01 1.330606e-03
    outer loop
      vertex   -2.141360e+02 1.144577e+02 1.800000e+01
      vertex   -2.140181e+02 1.144261e+02 1.800000e+01
      vertex   -2.140764e+02 1.144444e+02 1.600000e+01
    endloop
  endfacet
  facet normal 3.419937e-01 9.397013e-01 -1.331021e-03
    outer loop
      vertex   -2.140764e+02 1.144444e+02 1.600000e+01
      vertex   -2.140181e+02 1.144261e+02 1.800000e+01
      vertex   -2.139617e+02 1.144027e+02 1.600000e+01
    endloop
  endfacet
  facet normal 4.225873e-01 9.063212e-01 1.332831e-03
    outer loop
      vertex   -2.140181e+02 1.144261e+02 1.800000e+01
      vertex   -2.139075e+02 1.143745e+02 1.800000e+01
      vertex   -2.139617e+02 1.144027e+02 1.600000e+01
    endloop
  endfacet
  facet normal 4.999854e-01 8.660328e-01 -1.331480e-03
    outer loop
      vertex   -2.139617e+02 1.144027e+02 1.600000e+01
      vertex   -2.139075e+02 1.143745e+02 1.800000e+01
      vertex   -2.138560e+02 1.143417e+02 1.600000e+01
    endloop
  endfacet
  facet normal 5.735877e-01 8.191431e-01 1.332863e-03
    outer loop
      vertex   -2.139075e+02 1.143745e+02 1.800000e+01
      vertex   -2.138076e+02 1.143045e+02 1.800000e+01
      vertex   -2.138560e+02 1.143417e+02 1.600000e+01
    endloop
  endfacet
  facet normal 6.427633e-01 7.660637e-01 -1.329491e-03
    outer loop
      vertex   -2.138560e+02 1.143417e+02 1.600000e+01
      vertex   -2.138076e+02 1.143045e+02 1.800000e+01
      vertex   -2.137625e+02 1.142633e+02 1.600000e+01
    endloop
  endfacet
  facet normal 7.070749e-01 7.071374e-01 1.333862e-03
    outer loop
      vertex   -2.138076e+02 1.143045e+02 1.800000e+01
      vertex   -2.137213e+02 1.142182e+02 1.800000e+01
      vertex   -2.137625e+02 1.142633e+02 1.600000e+01
    endloop
  endfacet
  facet normal 7.660637e-01 6.427633e-01 -1.332413e-03
    outer loop
      vertex   -2.137625e+02 1.142633e+02 1.600000e+01
      vertex   -2.137213e+02 1.142182e+02 1.800000e+01
      vertex   -2.136841e+02 1.141698e+02 1.600000e+01
    endloop
  endfacet
  facet normal 8.191930e-01 5.735164e-01 1.332395e-03
    outer loop
      vertex   -2.137213e+02 1.142182e+02 1.800000e+01
      vertex   -2.136513e+02 1.141183e+02 1.800000e+01
      vertex   -2.136841e+02 1.141698e+02 1.600000e+01
    endloop
  endfacet
  facet normal 8.660328e-01 4.999854e-01 -1.329572e-03
    outer loop
      vertex   -2.136841e+02 1.141698e+02 1.600000e+01
      vertex   -2.136513e+02 1.141183e+02 1.800000e+01
      vertex   -2.136231e+02 1.140641e+02 1.600000e+01
    endloop
  endfacet
  facet normal 9.062750e-01 4.226865e-01 1.331102e-03
    outer loop
      vertex   -2.136513e+02 1.141183e+02 1.800000e+01
      vertex   -2.135997e+02 1.140077e+02 1.800000e+01
      vertex   -2.136231e+02 1.140641e+02 1.600000e+01
    endloop
  endfacet
  facet normal 9.396940e-01 3.420138e-01 -1.335258e-03
    outer loop
      vertex   -2.136231e+02 1.140641e+02 1.600000e+01
      vertex   -2.135997e+02 1.140077e+02 1.800000e+01
      vertex   -2.135814e+02 1.139495e+02 1.600000e+01
    endloop
  endfacet
  facet normal 9.659449e-01 2.587442e-01 1.330606e-03
    outer loop
      vertex   -2.135997e+02 1.140077e+02 1.800000e+01
      vertex   -2.135682e+02 1.138898e+02 1.800000e+01
      vertex   -2.135814e+02 1.139495e+02 1.600000e+01
    endloop
  endfacet
  facet normal 9.847978e-01 1.736996e-01 -1.328969e-03
    outer loop
      vertex   -2.135814e+02 1.139495e+02 1.600000e+01
      vertex   -2.135682e+02 1.138898e+02 1.800000e+01
      vertex   -2.135602e+02 1.138293e+02 1.600000e+01
    endloop
  endfacet
  facet normal 9.961936e-01 8.715834e-02 1.336402e-03
    outer loop
      vertex   -2.135682e+02 1.138898e+02 1.800000e+01
      vertex   -2.135575e+02 1.137683e+02 1.800000e+01
      vertex   -2.135602e+02 1.138293e+02 1.600000e+01
    endloop
  endfacet
  facet normal 0.000000e+00 1.000000e+00 0.000000e+00
    outer loop
      vertex   -2.142575e+02 1.144683e+02 1.800000e+01
      vertex   -2.142575e+02 1.144683e+02 1.400000e+01
      vertex   -2.145575e+02 1.144683e+02 1.800000e+01
    endloop
  endfacet
  facet normal 0.000000e+00 1.000000e+00 0.000000e+00
    outer loop
      vertex   -2.145575e+02 1.144683e+02 1.800000e+01
      vertex   -2.142575e+02 1.144683e+02 1.400000e+01
      vertex   -2.145575e+02 1.144683e+02 1.400000e+01
    endloop
  endfacet
  facet normal -7.071068e-01 7.071068e-01 0.000000e+00
    outer loop
      vertex   -2.145575e+02 1.144683e+02 1.800000e+01
      vertex   -2.145575e+02 1.144683e+02 1.400000e+01
      vertex   -2.160575e+02 1.129683e+02 1.800000e+01
    endloop
  endfacet
  facet normal -7.071068e-01 7.071068e-01 0.000000e+00
    outer loop
      vertex   -2.160575e+02 1.129683e+02 1.800000e+01
      vertex   -2.145575e+02 1.144683e+02 1.400000e+01
      vertex   -2.160575e+02 1.129683e+02 1.400000e+01
    endloop
  endfacet
  facet normal -7.071068e-01 -7.071068e-01 0.000000e+00
    outer loop
      vertex   -2.145575e+02 1.094683e+02 1.400000e+01
      vertex   -2.145575e+02 1.094683e+02 1.800000e+01
      vertex   -2.160575e+02 1.109683e+02 1.400000e+01
    endloop
  endfacet
  facet normal -7.071068e-01 -7.071068e-01 0.000000e+00
    outer loop
      vertex   -2.160575e+02 1.109683e+02 1.400000e+01
      vertex   -2.145575e+02 1.094683e+02 1.800000e+01
      vertex   -2.160575e+02 1.109683e+02 1.800000e+01
    endloop
  endfacet
  facet normal 0.000000e+00 1.000000e+00 0.000000e+00
    outer loop
      vertex   -2.165575e+02 1.129683e+02 1.400000e+01
      vertex   -2.165575e+02 1.129683e+02 1.800000e+01
      vertex   -2.160575e+02 1.129683e+02 1.400000e+01
    endloop
  endfacet
  facet normal 0.000000e+00 1.000000e+00 -0.000000e+00
    outer loop
      vertex   -2.160575e+02 1.129683e+02 1.400000e+01
      vertex   -2.165575e+02 1.129683e+02 1.800000e+01
      vertex   -2.160575e+02 1.129683e+02 1.800000e+01
    endloop
  endfacet
  facet normal 1.000000e+00 -0.000000e+00 0.000000e+00
    outer loop
      vertex   -2.135575e+02 1.101683e+02 1.800000e+01
      vertex   -2.135575e+02 1.101683e+02 1.400000e+01
      vertex   -2.135575e+02 1.137683e+02 1.800000e+01
    endloop
  endfacet
  facet normal 1.000000e+00 0.000000e+00 0.000000e+00
    outer loop
      vertex   -2.135575e+02 1.137683e+02 1.800000e+01
      vertex   -2.135575e+02 1.101683e+02 1.400000e+01
      vertex   -2.135575e+02 1.137683e+02 1.400000e+01
    endloop
  endfacet
  facet normal 1.000000e+00 0.000000e+00 0.000000e+00
    outer loop
      vertex   -2.165575e+02 1.527683e+02 8.600000e+01
      vertex   -2.165575e+02 9.686830e+01 8.600000e+01
      vertex   -2.165575e+02 1.527683e+02 8.200002e+01
    endloop
  endfacet
  facet normal 1.000000e+00 0.000000e+00 0.000000e+00
    outer loop
      vertex   -2.165575e+02 1.527683e+02 8.200002e+01
      vertex   -2.165575e+02 9.686830e+01 8.600000e+01
      vertex   -2.165575e+02 1.348683e+02 5.000000e+01
    endloop
  endfacet
  facet normal 1.000000e+00 -0.000000e+00 0.000000e+00
    outer loop
      vertex   -2.165575e+02 1.527683e+02 8.200002e+01
      vertex   -2.165575e+02 1.348683e+02 5.000000e+01
      vertex   -2.165575e+02 1.547683e+02 8.200002e+01
    endloop
  endfacet
  facet normal 1.000000e+00 0.000000e+00 0.000000e+00
    outer loop
      vertex   -2.165575e+02 1.547683e+02 8.200002e+01
      vertex   -2.165575e+02 1.348683e+02 5.000000e+01
      vertex   -2.165575e+02 1.728683e+02 5.000000e+01
    endloop
  endfacet
  facet normal 1.000000e+00 -0.000000e+00 0.000000e+00
    outer loop
      vertex   -2.165575e+02 1.547683e+02 8.200002e+01
      vertex   -2.165575e+02 1.728683e+02 5.000000e+01
      vertex   -2.165575e+02 1.728683e+02 8.600000e+01
    endloop
  endfacet
  facet normal 1.000000e+00 0.000000e+00 0.000000e+00
    outer loop
      vertex   -2.165575e+02 9.686830e+01 8.600000e+01
      vertex   -2.165575e+02 9.686830e+01 5.000000e+01
      vertex   -2.165575e+02 1.348683e+02 5.000000e+01
    endloop
  endfacet
  facet normal 1.000000e+00 0.000000e+00 0.000000e+00
    outer loop
      vertex   -2.165575e+02 1.348683e+02 5.000000e+01
      vertex   -2.165575e+02 9.686830e+01 5.000000e+01
      vertex   -2.165575e+02 1.129683e+02 1.800000e+01
    endloop
  endfacet
  facet normal 1.000000e+00 0.000000e+00 0.000000e+00
    outer loop
      vertex   -2.165575e+02 1.348683e+02 5.000000e+01
      vertex   -2.165575e+02 1.129683e+02 1.800000e+01
      vertex   -2.165575e+02 1.429183e+02 1.400000e+01
    endloop
  endfacet
  facet normal 1.000000e+00 0.000000e+00 0.000000e+00
    outer loop
      vertex   -2.165575e+02 1.429183e+02 1.400000e+01
      vertex   -2.165575e+02 1.129683e+02 1.800000e+01
      vertex   -2.165575e+02 1.129683e+02 1.400000e+01
    endloop
  endfacet
  facet normal 1.000000e+00 0.000000e+00 0.000000e+00
    outer loop
      vertex   -2.165575e+02 1.129683e+02 1.800000e+01
      vertex   -2.165575e+02 9.686830e+01 5.000000e+01
      vertex   -2.165575e+02 1.109683e+02 1.800000e+01
    endloop
  endfacet
  facet normal 1.000000e+00 0.000000e+00 0.000000e+00
    outer loop
      vertex   -2.165575e+02 1.109683e+02 1.800000e+01
      vertex   -2.165575e+02 9.686830e+01 5.000000e+01
      vertex   -2.165575e+02 9.686830e+01 1.400000e+01
    endloop
  endfacet
  facet normal 1.000000e+00 0.000000e+00 0.000000e+00
    outer loop
      vertex   -2.165575e+02 1.109683e+02 1.800000e+01
      vertex   -2.165575e+02 9.686830e+01 1.400000e+01
      vertex   -2.165575e+02 1.109683e+02 1.400000e+01
    endloop
  endfacet
  facet normal 1.000000e+00 0.000000e+00 -0.000000e+00
    outer loop
      vertex   -2.165575e+02 1.728683e+02 1.400000e+01
      vertex   -2.165575e+02 1.728683e+02 5.000000e+01
      vertex   -2.165575e+02 1.429183e+02 1.400000e+01
    endloop
  endfacet
  facet normal 1.000000e+00 0.000000e+00 -0.000000e+00
    outer loop
      vertex   -2.165575e+02 1.429183e+02 1.400000e+01
      vertex   -2.165575e+02 1.728683e+02 5.000000e+01
      vertex   -2.165575e+02 1.348683e+02 5.000000e+01
    endloop
  endfacet
  facet normal 1.000000e+00 0.000000e+00 0.000000e+00
    outer loop
      vertex   -2.165575e+02 1.728683e+02 8.600000e+01
      vertex   -2.165575e+02 1.547683e+02 8.600000e+01
      vertex   -2.165575e+02 1.547683e+02 8.200002e+01
    endloop
  endfacet
  facet normal 0.000000e+00 6.763652e-08 -1.000000e+00
    outer loop
      vertex   -2.165575e+02 9.686830e+01 1.400000e+01
      vertex   -2.205575e+02 9.686830e+01 1.400000e+01
      vertex   -2.165575e+02 1.109683e+02 1.400000e+01
    endloop
  endfacet
  facet normal 1.919268e-06 -4.768372e-07 -1.000000e+00
    outer loop
      vertex   -2.165575e+02 1.109683e+02 1.400000e+01
      vertex   -2.205575e+02 9.686830e+01 1.400000e+01
      vertex   -2.165575e+02 1.129683e+02 1.400000e+01
    endloop
  endfacet
  facet normal 1.907407e-06 -4.768372e-07 -1.000000e+00
    outer loop
      vertex   -2.165575e+02 1.109683e+02 1.400000e+01
      vertex   -2.165575e+02 1.129683e+02 1.400000e+01
      vertex   -2.160575e+02 1.129683e+02 1.400000e+01
    endloop
  endfacet
  facet normal 0.000000e+00 0.000000e+00 -1.000000e+00
    outer loop
      vertex   -2.205575e+02 9.686830e+01 1.400000e+01
      vertex   -2.205575e+02 1.328683e+02 1.400000e+01
      vertex   -2.165575e+02 1.129683e+02 1.400000e+01
    endloop
  endfacet
  facet normal 0.000000e+00 0.000000e+00 -1.000000e+00
    outer loop
      vertex   -2.165575e+02 1.129683e+02 1.400000e+01
      vertex   -2.205575e+02 1.328683e+02 1.400000e+01
      vertex   -2.165575e+02 1.429183e+02 1.400000e+01
    endloop
  endfacet
  facet normal -0.000000e+00 0.000000e+00 -1.000000e+00
    outer loop
      vertex   -2.165575e+02 1.429183e+02 1.400000e+01
      vertex   -2.205575e+02 1.328683e+02 1.400000e+01
      vertex   -2.205575e+02 1.688683e+02 1.400000e+01
    endloop
  endfacet
  facet normal 0.000000e+00 0.000000e+00 -1.000000e+00
    outer loop
      vertex   -2.165575e+02 1.429183e+02 1.400000e+01
      vertex   -2.205575e+02 1.688683e+02 1.400000e+01
      vertex   -2.165575e+02 1.728683e+02 1.400000e+01
    endloop
  endfacet
  facet normal 0.000000e+00 0.000000e+00 -1.000000e+00
    outer loop
      vertex   -2.165575e+02 1.109683e+02 1.400000e+01
      vertex   -2.160575e+02 1.129683e+02 1.400000e+01
      vertex   -2.160575e+02 1.109683e+02 1.400000e+01
    endloop
  endfacet
  facet normal 0.000000e+00 0.000000e+00 -1.000000e+00
    outer loop
      vertex   -2.160575e+02 1.109683e+02 1.400000e+01
      vertex   -2.160575e+02 1.129683e+02 1.400000e+01
      vertex   -2.145575e+02 1.144683e+02 1.400000e+01
    endloop
  endfacet
  facet normal 0.000000e+00 0.000000e+00 -1.000000e+00
    outer loop
      vertex   -2.160575e+02 1.109683e+02 1.400000e+01
      vertex   -2.145575e+02 1.144683e+02 1.400000e+01
      vertex   -2.145575e+02 1.094683e+02 1.400000e+01
    endloop
  endfacet
  facet normal 0.000000e+00 0.000000e+00 -1.000000e+00
    outer loop
      vertex   -2.145575e+02 1.094683e+02 1.400000e+01
      vertex   -2.145575e+02 1.144683e+02 1.400000e+01
      vertex   -2.142575e+02 1.144683e+02 1.400000e+01
    endloop
  endfacet
  facet normal 0.000000e+00 0.000000e+00 -1.000000e+00
    outer loop
      vertex   -2.145575e+02 1.094683e+02 1.400000e+01
      vertex   -2.142575e+02 1.144683e+02 1.400000e+01
      vertex   -2.142575e+02 1.094683e+02 1.400000e+01
    endloop
  endfacet
  facet normal 0.000000e+00 0.000000e+00 -1.000000e+00
    outer loop
      vertex   -2.142575e+02 1.094683e+02 1.400000e+01
      vertex   -2.142575e+02 1.144683e+02 1.400000e+01
      vertex   -2.141360e+02 1.094789e+02 1.400000e+01
    endloop
  endfacet
  facet normal 0.000000e+00 0.000000e+00 -1.000000e+00
    outer loop
      vertex   -2.141360e+02 1.094789e+02 1.400000e+01
      vertex   -2.142575e+02 1.144683e+02 1.400000e+01
      vertex   -2.141360e+02 1.144577e+02 1.400000e+01
    endloop
  endfacet
  facet normal 0.000000e+00 0.000000e+00 -1.000000e+00
    outer loop
      vertex   -2.141360e+02 1.094789e+02 1.400000e+01
      vertex   -2.141360e+02 1.144577e+02 1.400000e+01
      vertex   -2.140181e+02 1.095105e+02 1.400000e+01
    endloop
  endfacet
  facet normal 0.000000e+00 0.000000e+00 -1.000000e+00
    outer loop
      vertex   -2.140181e+02 1.095105e+02 1.400000e+01
      vertex   -2.141360e+02 1.144577e+02 1.400000e+01
      vertex   -2.140181e+02 1.144261e+02 1.400000e+01
    endloop
  endfacet
  facet normal 0.000000e+00 0.000000e+00 -1.000000e+00
    outer loop
      vertex   -2.140181e+02 1.095105e+02 1.400000e+01
      vertex   -2.140181e+02 1.144261e+02 1.400000e+01
      vertex   -2.139075e+02 1.095621e+02 1.400000e+01
    endloop
  endfacet
  facet normal 0.000000e+00 0.000000e+00 -1.000000e+00
    outer loop
      vertex   -2.139075e+02 1.095621e+02 1.400000e+01
      vertex   -2.140181e+02 1.144261e+02 1.400000e+01
      vertex   -2.139075e+02 1.143745e+02 1.400000e+01
    endloop
  endfacet
  facet normal 0.000000e+00 0.000000e+00 -1.000000e+00
    outer loop
      vertex   -2.139075e+02 1.095621e+02 1.400000e+01
      vertex   -2.139075e+02 1.143745e+02 1.400000e+01
      vertex   -2.138076e+02 1.096321e+02 1.400000e+01
    endloop
  endfacet
  facet normal 0.000000e+00 0.000000e+00 -1.000000e+00
    outer loop
      vertex   -2.138076e+02 1.096321e+02 1.400000e+01
      vertex   -2.139075e+02 1.143745e+02 1.400000e+01
      vertex   -2.138076e+02 1.143045e+02 1.400000e+01
    endloop
  endfacet
  facet normal 0.000000e+00 0.000000e+00 -1.000000e+00
    outer loop
      vertex   -2.138076e+02 1.096321e+02 1.400000e+01
      vertex   -2.138076e+02 1.143045e+02 1.400000e+01
      vertex   -2.137213e+02 1.097183e+02 1.400000e+01
    endloop
  endfacet
  facet normal 0.000000e+00 0.000000e+00 -1.000000e+00
    outer loop
      vertex   -2.137213e+02 1.097183e+02 1.400000e+01
      vertex   -2.138076e+02 1.143045e+02 1.400000e+01
      vertex   -2.137213e+02 1.142182e+02 1.400000e+01
    endloop
  endfacet
  facet normal 0.000000e+00 0.000000e+00 -1.000000e+00
    outer loop
      vertex   -2.137213e+02 1.097183e+02 1.400000e+01
      vertex   -2.137213e+02 1.142182e+02 1.400000e+01
      vertex   -2.135575e+02 1.101683e+02 1.400000e+01
    endloop
  endfacet
  facet normal 0.000000e+00 0.000000e+00 -1.000000e+00
    outer loop
      vertex   -2.135575e+02 1.101683e+02 1.400000e+01
      vertex   -2.137213e+02 1.142182e+02 1.400000e+01
      vertex   -2.135575e+02 1.137683e+02 1.400000e+01
    endloop
  endfacet
  facet normal 0.000000e+00 0.000000e+00 -1.000000e+00
    outer loop
      vertex   -2.135575e+02 1.137683e+02 1.400000e+01
      vertex   -2.137213e+02 1.142182e+02 1.400000e+01
      vertex   -2.136513e+02 1.141183e+02 1.400000e+01
    endloop
  endfacet
  facet normal 0.000000e+00 0.000000e+00 -1.000000e+00
    outer loop
      vertex   -2.135575e+02 1.137683e+02 1.400000e+01
      vertex   -2.136513e+02 1.141183e+02 1.400000e+01
      vertex   -2.135997e+02 1.140077e+02 1.400000e+01
    endloop
  endfacet
  facet normal 0.000000e+00 0.000000e+00 -1.000000e+00
    outer loop
      vertex   -2.135997e+02 1.140077e+02 1.400000e+01
      vertex   -2.135682e+02 1.138898e+02 1.400000e+01
      vertex   -2.135575e+02 1.137683e+02 1.400000e+01
    endloop
  endfacet
  facet normal -0.000000e+00 0.000000e+00 -1.000000e+00
    outer loop
      vertex   -2.135682e+02 1.100467e+02 1.400000e+01
      vertex   -2.135997e+02 1.099289e+02 1.400000e+01
      vertex   -2.135575e+02 1.101683e+02 1.400000e+01
    endloop
  endfacet
  facet normal 0.000000e+00 0.000000e+00 -1.000000e+00
    outer loop
      vertex   -2.135575e+02 1.101683e+02 1.400000e+01
      vertex   -2.135997e+02 1.099289e+02 1.400000e+01
      vertex   -2.136513e+02 1.098183e+02 1.400000e+01
    endloop
  endfacet
  facet normal 0.000000e+00 0.000000e+00 -1.000000e+00
    outer loop
      vertex   -2.135575e+02 1.101683e+02 1.400000e+01
      vertex   -2.136513e+02 1.098183e+02 1.400000e+01
      vertex   -2.137213e+02 1.097183e+02 1.400000e+01
    endloop
  endfacet
  facet normal 0.000000e+00 -1.000000e+00 0.000000e+00
    outer loop
      vertex   -2.205575e+02 9.686830e+01 1.400000e+01
      vertex   -2.165575e+02 9.686830e+01 1.400000e+01
      vertex   -2.205575e+02 9.686830e+01 5.000000e+01
    endloop
  endfacet
  facet normal 0.000000e+00 -1.000000e+00 0.000000e+00
    outer loop
      vertex   -2.205575e+02 9.686830e+01 5.000000e+01
      vertex   -2.165575e+02 9.686830e+01 1.400000e+01
      vertex   -2.165575e+02 9.686830e+01 5.000000e+01
    endloop
  endfacet
  facet normal 0.000000e+00 -1.000000e+00 0.000000e+00
    outer loop
      vertex   -2.205575e+02 9.686830e+01 5.000000e+01
      vertex   -2.165575e+02 9.686830e+01 5.000000e+01
      vertex   -2.205575e+02 9.686830e+01 8.600000e+01
    endloop
  endfacet
  facet normal 0.000000e+00 -1.000000e+00 0.000000e+00
    outer loop
      vertex   -2.205575e+02 9.686830e+01 8.600000e+01
      vertex   -2.165575e+02 9.686830e+01 5.000000e+01
      vertex   -2.165575e+02 9.686830e+01 8.600000e+01
    endloop
  endfacet
  facet normal -7.071068e-01 7.071068e-01 0.000000e+00
    outer loop
      vertex   -2.165575e+02 1.728683e+02 8.600000e+01
      vertex   -2.165575e+02 1.728683e+02 5.000000e+01
      vertex   -2.205575e+02 1.688683e+02 8.600000e+01
    endloop
  endfacet
  facet normal -7.071068e-01 7.071068e-01 0.000000e+00
    outer loop
      vertex   -2.205575e+02 1.688683e+02 8.600000e+01
      vertex   -2.165575e+02 1.728683e+02 5.000000e+01
      vertex   -2.205575e+02 1.688683e+02 5.000000e+01
    endloop
  endfacet
  facet normal -7.071068e-01 7.071068e-01 0.000000e+00
    outer loop
      vertex   -2.205575e+02 1.688683e+02 5.000000e+01
      vertex   -2.165575e+02 1.728683e+02 5.000000e+01
      vertex   -2.165575e+02 1.728683e+02 1.400000e+01
    endloop
  endfacet
  facet normal -7.071068e-01 7.071068e-01 0.000000e+00
    outer loop
      vertex   -2.205575e+02 1.688683e+02 5.000000e+01
      vertex   -2.165575e+02 1.728683e+02 1.400000e+01
      vertex   -2.205575e+02 1.688683e+02 1.400000e+01
    endloop
  endfacet
  facet normal -1.000000e+00 0.000000e+00 0.000000e+00
    outer loop
      vertex   -2.205575e+02 9.686830e+01 1.400000e+01
      vertex   -2.205575e+02 9.686830e+01 5.000000e+01
      vertex   -2.205575e+02 1.328683e+02 1.400000e+01
    endloop
  endfacet
  facet normal -1.000000e+00 0.000000e+00 0.000000e+00
    outer loop
      vertex   -2.205575e+02 1.328683e+02 1.400000e+01
      vertex   -2.205575e+02 9.686830e+01 5.000000e+01
      vertex   -2.205575e+02 1.328683e+02 5.000000e+01
    endloop
  endfacet
  facet normal -1.000000e+00 0.000000e+00 0.000000e+00
    outer loop
      vertex   -2.205575e+02 1.328683e+02 1.400000e+01
      vertex   -2.205575e+02 1.328683e+02 5.000000e+01
      vertex   -2.205575e+02 1.688683e+02 1.400000e+01
    endloop
  endfacet
  facet normal -1.000000e+00 0.000000e+00 0.000000e+00
    outer loop
      vertex   -2.205575e+02 1.688683e+02 1.400000e+01
      vertex   -2.205575e+02 1.328683e+02 5.000000e+01
      vertex   -2.205575e+02 1.688683e+02 5.000000e+01
    endloop
  endfacet
  facet normal -1.000000e+00 0.000000e+00 0.000000e+00
    outer loop
      vertex   -2.205575e+02 1.688683e+02 5.000000e+01
      vertex   -2.205575e+02 1.328683e+02 5.000000e+01
      vertex   -2.205575e+02 1.328683e+02 8.600000e+01
    endloop
  endfacet
  facet normal -1.000000e+00 0.000000e+00 0.000000e+00
    outer loop
      vertex   -2.205575e+02 1.688683e+02 5.000000e+01
      vertex   -2.205575e+02 1.328683e+02 8.600000e+01
      vertex   -2.205575e+02 1.688683e+02 8.600000e+01
    endloop
  endfacet
  facet normal -1.000000e+00 0.000000e+00 0.000000e+00
    outer loop
      vertex   -2.205575e+02 9.686830e+01 5.000000e+01
      vertex   -2.205575e+02 9.686830e+01 8.600000e+01
      vertex   -2.205575e+02 1.328683e+02 5.000000e+01
    endloop
  endfacet
  facet normal -1.000000e+00 0.000000e+00 0.000000e+00
    outer loop
      vertex   -2.205575e+02 1.328683e+02 5.000000e+01
      vertex   -2.205575e+02 9.686830e+01 8.600000e+01
      vertex   -2.205575e+02 1.328683e+02 8.600000e+01
    endloop
  endfacet
endsolid
