solid ascii
  facet normal 7.001939e-01 7.001966e-01 1.394746e-01
    outer loop
      vertex   -5.743168e+01 1.935719e+02 1.000000e+00
      vertex   -5.762811e+01 1.932134e+02 3.785869e+00
      vertex   -5.642806e+01 1.925683e+02 1.000000e+00
    endloop
  endfacet
  facet normal 7.001982e-01 7.001918e-01 1.394776e-01
    outer loop
      vertex   -5.642806e+01 1.925683e+02 1.000000e+00
      vertex   -5.762811e+01 1.932134e+02 3.785869e+00
      vertex   -5.678658e+01 1.923719e+02 3.785869e+00
    endloop
  endfacet
  facet normal 7.001981e-01 7.001917e-01 1.394785e-01
    outer loop
      vertex   -5.678658e+01 1.923719e+02 3.785869e+00
      vertex   -5.762811e+01 1.932134e+02 3.785869e+00
      vertex   -5.907416e+01 1.941945e+02 6.120306e+00
    endloop
  endfacet
  facet normal 7.001958e-01 7.001950e-01 1.394738e-01
    outer loop
      vertex   -5.678658e+01 1.923719e+02 3.785869e+00
      vertex   -5.907416e+01 1.941945e+02 6.120306e+00
      vertex   -5.580553e+01 1.909258e+02 6.120306e+00
    endloop
  endfacet
  facet normal -7.288133e-01 6.831911e-01 -4.562030e-02
    outer loop
      vertex   -5.400071e+01 1.951578e+02 1.000000e+00
      vertex   -5.642806e+01 1.925683e+02 1.000000e+00
      vertex   -5.678658e+01 1.923719e+02 3.785869e+00
    endloop
  endfacet
  facet normal 6.831934e-01 -7.288112e-01 -4.561881e-02
    outer loop
      vertex   -5.743168e+01 1.935719e+02 1.000000e+00
      vertex   -5.484224e+01 1.959993e+02 1.000000e+00
      vertex   -5.762811e+01 1.932134e+02 3.785869e+00
    endloop
  endfacet
  facet normal -2.113252e-01 7.886756e-01 5.773495e-01
    outer loop
      vertex   -5.068523e+01 1.960461e+02 1.000000e+00
      vertex   -5.400071e+01 1.951578e+02 1.000000e+00
      vertex   -5.580553e+01 1.909258e+02 6.120306e+00
    endloop
  endfacet
  facet normal -2.113289e-01 7.886756e-01 5.773482e-01
    outer loop
      vertex   -5.580553e+01 1.909258e+02 6.120306e+00
      vertex   -5.400071e+01 1.951578e+02 1.000000e+00
      vertex   -5.678658e+01 1.923719e+02 3.785869e+00
    endloop
  endfacet
  facet normal -4.082486e-01 -4.082481e-01 -8.164965e-01
    outer loop
      vertex   -5.580553e+01 1.909258e+02 6.120306e+00
      vertex   -5.907416e+01 1.941945e+02 6.120306e+00
      vertex   -5.068523e+01 1.960461e+02 1.000000e+00
    endloop
  endfacet
  facet normal -4.082485e-01 -4.082485e-01 -8.164964e-01
    outer loop
      vertex   -5.068523e+01 1.960461e+02 1.000000e+00
      vertex   -5.907416e+01 1.941945e+02 6.120306e+00
      vertex   -5.395386e+01 1.993148e+02 1.000000e+00
    endloop
  endfacet
  facet normal 7.886751e-01 -2.113246e-01 5.773504e-01
    outer loop
      vertex   -5.395386e+01 1.993148e+02 1.000000e+00
      vertex   -5.907416e+01 1.941945e+02 6.120306e+00
      vertex   -5.484224e+01 1.959993e+02 1.000000e+00
    endloop
  endfacet
  facet normal 7.886751e-01 -2.113244e-01 5.773505e-01
    outer loop
      vertex   -5.484224e+01 1.959993e+02 1.000000e+00
      vertex   -5.907416e+01 1.941945e+02 6.120306e+00
      vertex   -5.762811e+01 1.932134e+02 3.785869e+00
    endloop
  endfacet
  facet normal 0.000000e+00 0.000000e+00 -1.000000e+00
    outer loop
      vertex   -5.395386e+01 1.993148e+02 1.000000e+00
      vertex   -5.484224e+01 1.959993e+02 1.000000e+00
      vertex   -5.580385e+01 1.961962e+02 1.000000e+00
    endloop
  endfacet
  facet normal 0.000000e+00 -0.000000e+00 -1.000000e+00
    outer loop
      vertex   -5.580385e+01 1.961962e+02 1.000000e+00
      vertex   -5.484224e+01 1.959993e+02 1.000000e+00
      vertex   -5.743168e+01 1.935719e+02 1.000000e+00
    endloop
  endfacet
  facet normal 0.000000e+00 0.000000e+00 -1.000000e+00
    outer loop
      vertex   -5.580385e+01 1.961962e+02 1.000000e+00
      vertex   -5.743168e+01 1.935719e+02 1.000000e+00
      vertex   -6.673205e+01 1.932679e+02 1.000000e+00
    endloop
  endfacet
  facet normal 0.000000e+00 0.000000e+00 -1.000000e+00
    outer loop
      vertex   -6.673205e+01 1.932679e+02 1.000000e+00
      vertex   -5.743168e+01 1.935719e+02 1.000000e+00
      vertex   -6.401019e+01 1.918092e+02 1.000000e+00
    endloop
  endfacet
  facet normal 0.000000e+00 -0.000000e+00 -1.000000e+00
    outer loop
      vertex   -6.673205e+01 1.932679e+02 1.000000e+00
      vertex   -6.401019e+01 1.918092e+02 1.000000e+00
      vertex   -6.746640e+01 1.926167e+02 1.000000e+00
    endloop
  endfacet
  facet normal 0.000000e+00 -0.000000e+00 -1.000000e+00
    outer loop
      vertex   -5.743168e+01 1.935719e+02 1.000000e+00
      vertex   -5.642806e+01 1.925683e+02 1.000000e+00
      vertex   -6.401019e+01 1.918092e+02 1.000000e+00
    endloop
  endfacet
  facet normal 0.000000e+00 -0.000000e+00 -1.000000e+00
    outer loop
      vertex   -6.401019e+01 1.918092e+02 1.000000e+00
      vertex   -5.642806e+01 1.925683e+02 1.000000e+00
      vertex   -6.437755e+01 1.904383e+02 1.000000e+00
    endloop
  endfacet
  facet normal 0.000000e+00 0.000000e+00 -1.000000e+00
    outer loop
      vertex   -6.437755e+01 1.904383e+02 1.000000e+00
      vertex   -5.642806e+01 1.925683e+02 1.000000e+00
      vertex   -5.819077e+01 1.859898e+02 1.000000e+00
    endloop
  endfacet
  facet normal 0.000000e+00 0.000000e+00 -1.000000e+00
    outer loop
      vertex   -6.437755e+01 1.904383e+02 1.000000e+00
      vertex   -5.819077e+01 1.859898e+02 1.000000e+00
      vertex   -5.956174e+01 1.856225e+02 1.000000e+00
    endloop
  endfacet
  facet normal 0.000000e+00 0.000000e+00 -1.000000e+00
    outer loop
      vertex   -5.819077e+01 1.859898e+02 1.000000e+00
      vertex   -5.642806e+01 1.925683e+02 1.000000e+00
      vertex   -5.380385e+01 1.941962e+02 1.000000e+00
    endloop
  endfacet
  facet normal -0.000000e+00 0.000000e+00 -1.000000e+00
    outer loop
      vertex   -5.380385e+01 1.941962e+02 1.000000e+00
      vertex   -5.642806e+01 1.925683e+02 1.000000e+00
      vertex   -5.400071e+01 1.951578e+02 1.000000e+00
    endloop
  endfacet
  facet normal 0.000000e+00 0.000000e+00 -1.000000e+00
    outer loop
      vertex   -5.380385e+01 1.941962e+02 1.000000e+00
      vertex   -5.400071e+01 1.951578e+02 1.000000e+00
      vertex   -5.068523e+01 1.960461e+02 1.000000e+00
    endloop
  endfacet
  facet normal 0.000000e+00 0.000000e+00 -1.000000e+00
    outer loop
      vertex   -5.395386e+01 1.993148e+02 1.000000e+00
      vertex   -4.933974e+01 1.966602e+02 1.000000e+00
      vertex   -5.068523e+01 1.960461e+02 1.000000e+00
    endloop
  endfacet
  facet normal 0.000000e+00 0.000000e+00 -1.000000e+00
    outer loop
      vertex   -5.068523e+01 1.960461e+02 1.000000e+00
      vertex   -4.933974e+01 1.966602e+02 1.000000e+00
      vertex   -4.970577e+01 1.952942e+02 1.000000e+00
    endloop
  endfacet
  facet normal 0.000000e+00 -0.000000e+00 -1.000000e+00
    outer loop
      vertex   -5.068523e+01 1.960461e+02 1.000000e+00
      vertex   -4.970577e+01 1.952942e+02 1.000000e+00
      vertex   -5.380385e+01 1.941962e+02 1.000000e+00
    endloop
  endfacet
  facet normal 0.000000e+00 0.000000e+00 -1.000000e+00
    outer loop
      vertex   -6.746640e+01 1.926167e+02 1.000000e+00
      vertex   -6.989350e+01 1.950438e+02 1.000000e+00
      vertex   -6.673205e+01 1.932679e+02 1.000000e+00
    endloop
  endfacet
  facet normal 0.000000e+00 0.000000e+00 -1.000000e+00
    outer loop
      vertex   -6.673205e+01 1.932679e+02 1.000000e+00
      vertex   -6.989350e+01 1.950438e+02 1.000000e+00
      vertex   -6.973205e+01 1.962679e+02 1.000000e+00
    endloop
  endfacet
  facet normal 0.000000e+00 0.000000e+00 -1.000000e+00
    outer loop
      vertex   -6.973205e+01 1.962679e+02 1.000000e+00
      vertex   -6.989350e+01 1.950438e+02 1.000000e+00
      vertex   -7.109808e+01 1.959019e+02 1.000000e+00
    endloop
  endfacet
  facet normal 0.000000e+00 -0.000000e+00 -1.000000e+00
    outer loop
      vertex   -7.109808e+01 1.959019e+02 1.000000e+00
      vertex   -6.989350e+01 1.950438e+02 1.000000e+00
      vertex   -7.256218e+01 1.904378e+02 1.000000e+00
    endloop
  endfacet
  facet normal 0.000000e+00 0.000000e+00 -1.000000e+00
    outer loop
      vertex   -7.256218e+01 1.904378e+02 1.000000e+00
      vertex   -6.989350e+01 1.950438e+02 1.000000e+00
      vertex   -7.108990e+01 1.905787e+02 1.000000e+00
    endloop
  endfacet
  facet normal 0.000000e+00 0.000000e+00 -1.000000e+00
    outer loop
      vertex   -7.256218e+01 1.904378e+02 1.000000e+00
      vertex   -7.108990e+01 1.905787e+02 1.000000e+00
      vertex   -7.156218e+01 1.894378e+02 1.000000e+00
    endloop
  endfacet
  facet normal 0.000000e+00 0.000000e+00 -1.000000e+00
    outer loop
      vertex   -7.156218e+01 1.894378e+02 1.000000e+00
      vertex   -7.108990e+01 1.905787e+02 1.000000e+00
      vertex   -6.746410e+01 1.905359e+02 1.000000e+00
    endloop
  endfacet
  facet normal 0.000000e+00 0.000000e+00 -1.000000e+00
    outer loop
      vertex   -6.746410e+01 1.905359e+02 1.000000e+00
      vertex   -7.108990e+01 1.905787e+02 1.000000e+00
      vertex   -6.777442e+01 1.914671e+02 1.000000e+00
    endloop
  endfacet
  facet normal 0.000000e+00 0.000000e+00 -1.000000e+00
    outer loop
      vertex   -6.746410e+01 1.905359e+02 1.000000e+00
      vertex   -6.777442e+01 1.914671e+02 1.000000e+00
      vertex   -6.437755e+01 1.904383e+02 1.000000e+00
    endloop
  endfacet
  facet normal 0.000000e+00 0.000000e+00 -1.000000e+00
    outer loop
      vertex   -5.580385e+01 1.961962e+02 1.000000e+00
      vertex   -5.470577e+01 2.002942e+02 1.000000e+00
      vertex   -5.395386e+01 1.993148e+02 1.000000e+00
    endloop
  endfacet
  facet normal 0.000000e+00 0.000000e+00 -1.000000e+00
    outer loop
      vertex   -5.395386e+01 1.993148e+02 1.000000e+00
      vertex   -5.470577e+01 2.002942e+02 1.000000e+00
      vertex   -5.333974e+01 2.006602e+02 1.000000e+00
    endloop
  endfacet
  facet normal 0.000000e+00 0.000000e+00 -1.000000e+00
    outer loop
      vertex   -5.395386e+01 1.993148e+02 1.000000e+00
      vertex   -5.333974e+01 2.006602e+02 1.000000e+00
      vertex   -4.933974e+01 1.966602e+02 1.000000e+00
    endloop
  endfacet
  facet normal 0.000000e+00 0.000000e+00 -1.000000e+00
    outer loop
      vertex   -5.380385e+01 1.941962e+02 1.000000e+00
      vertex   -5.673205e+01 1.832679e+02 1.000000e+00
      vertex   -5.819077e+01 1.859898e+02 1.000000e+00
    endloop
  endfacet
  facet normal 0.000000e+00 0.000000e+00 -1.000000e+00
    outer loop
      vertex   -5.819077e+01 1.859898e+02 1.000000e+00
      vertex   -5.673205e+01 1.832679e+02 1.000000e+00
      vertex   -5.738334e+01 1.825336e+02 1.000000e+00
    endloop
  endfacet
  facet normal 0.000000e+00 0.000000e+00 -1.000000e+00
    outer loop
      vertex   -5.738334e+01 1.825336e+02 1.000000e+00
      vertex   -5.673205e+01 1.832679e+02 1.000000e+00
      vertex   -5.495624e+01 1.801065e+02 1.000000e+00
    endloop
  endfacet
  facet normal 0.000000e+00 0.000000e+00 -1.000000e+00
    outer loop
      vertex   -5.495624e+01 1.801065e+02 1.000000e+00
      vertex   -5.673205e+01 1.832679e+02 1.000000e+00
      vertex   -5.373205e+01 1.802679e+02 1.000000e+00
    endloop
  endfacet
  facet normal 0.000000e+00 0.000000e+00 -1.000000e+00
    outer loop
      vertex   -5.495624e+01 1.801065e+02 1.000000e+00
      vertex   -5.373205e+01 1.802679e+02 1.000000e+00
      vertex   -5.409808e+01 1.789019e+02 1.000000e+00
    endloop
  endfacet
  facet normal 0.000000e+00 -0.000000e+00 -1.000000e+00
    outer loop
      vertex   -5.495624e+01 1.801065e+02 1.000000e+00
      vertex   -5.409808e+01 1.789019e+02 1.000000e+00
      vertex   -5.942127e+01 1.789101e+02 1.000000e+00
    endloop
  endfacet
  facet normal 0.000000e+00 -0.000000e+00 -1.000000e+00
    outer loop
      vertex   -5.942127e+01 1.789101e+02 1.000000e+00
      vertex   -5.409808e+01 1.789019e+02 1.000000e+00
      vertex   -5.956218e+01 1.774378e+02 1.000000e+00
    endloop
  endfacet
  facet normal 0.000000e+00 0.000000e+00 -1.000000e+00
    outer loop
      vertex   -5.942127e+01 1.789101e+02 1.000000e+00
      vertex   -5.956218e+01 1.774378e+02 1.000000e+00
      vertex   -6.056218e+01 1.784378e+02 1.000000e+00
    endloop
  endfacet
  facet normal 0.000000e+00 0.000000e+00 -1.000000e+00
    outer loop
      vertex   -6.056218e+01 1.784378e+02 1.000000e+00
      vertex   -5.946410e+01 1.825359e+02 1.000000e+00
      vertex   -5.942127e+01 1.789101e+02 1.000000e+00
    endloop
  endfacet
  facet normal 0.000000e+00 0.000000e+00 -1.000000e+00
    outer loop
      vertex   -5.942127e+01 1.789101e+02 1.000000e+00
      vertex   -5.946410e+01 1.825359e+02 1.000000e+00
      vertex   -5.853289e+01 1.822256e+02 1.000000e+00
    endloop
  endfacet
  facet normal 0.000000e+00 0.000000e+00 -1.000000e+00
    outer loop
      vertex   -5.853289e+01 1.822256e+02 1.000000e+00
      vertex   -5.946410e+01 1.825359e+02 1.000000e+00
      vertex   -5.956174e+01 1.856225e+02 1.000000e+00
    endloop
  endfacet
  facet normal -0.000000e+00 -0.000000e+00 -1.000000e+00
    outer loop
      vertex   -5.956174e+01 1.856225e+02 1.000000e+00
      vertex   -5.946410e+01 1.825359e+02 1.000000e+00
      vertex   -6.746410e+01 1.905359e+02 1.000000e+00
    endloop
  endfacet
  facet normal 0.000000e+00 0.000000e+00 -1.000000e+00
    outer loop
      vertex   -5.956174e+01 1.856225e+02 1.000000e+00
      vertex   -6.746410e+01 1.905359e+02 1.000000e+00
      vertex   -6.437755e+01 1.904383e+02 1.000000e+00
    endloop
  endfacet
  facet normal 2.895723e-01 9.560685e-01 -4.561783e-02
    outer loop
      vertex   -6.437755e+01 1.904383e+02 1.000000e+00
      vertex   -6.777442e+01 1.914671e+02 1.000000e+00
      vertex   -6.396885e+01 1.904474e+02 3.785869e+00
    endloop
  endfacet
  facet normal -9.564832e-01 2.562921e-01 1.394781e-01
    outer loop
      vertex   -6.437755e+01 1.904383e+02 1.000000e+00
      vertex   -6.396885e+01 1.904474e+02 3.785869e+00
      vertex   -6.401019e+01 1.918092e+02 1.000000e+00
    endloop
  endfacet
  facet normal -9.564842e-01 2.562893e-01 1.394767e-01
    outer loop
      vertex   -6.401019e+01 1.918092e+02 1.000000e+00
      vertex   -6.396885e+01 1.904474e+02 3.785869e+00
      vertex   -6.366083e+01 1.915970e+02 3.785869e+00
    endloop
  endfacet
  facet normal -9.564843e-01 2.562894e-01 1.394759e-01
    outer loop
      vertex   -6.366083e+01 1.915970e+02 3.785869e+00
      vertex   -6.396885e+01 1.904474e+02 3.785869e+00
      vertex   -6.409544e+01 1.887046e+02 6.120306e+00
    endloop
  endfacet
  facet normal -9.564844e-01 2.562890e-01 1.394754e-01
    outer loop
      vertex   -6.366083e+01 1.915970e+02 3.785869e+00
      vertex   -6.409544e+01 1.887046e+02 6.120306e+00
      vertex   -6.289903e+01 1.931696e+02 6.120306e+00
    endloop
  endfacet
  facet normal -2.272520e-01 -9.727666e-01 -4.562528e-02
    outer loop
      vertex   -6.746640e+01 1.926167e+02 1.000000e+00
      vertex   -6.401019e+01 1.918092e+02 1.000000e+00
      vertex   -6.366083e+01 1.915970e+02 3.785869e+00
    endloop
  endfacet
  facet normal -5.773506e-01 -5.773488e-01 5.773515e-01
    outer loop
      vertex   -6.989350e+01 1.950438e+02 1.000000e+00
      vertex   -6.746640e+01 1.926167e+02 1.000000e+00
      vertex   -6.289903e+01 1.931696e+02 6.120306e+00
    endloop
  endfacet
  facet normal -5.773507e-01 -5.773485e-01 5.773516e-01
    outer loop
      vertex   -6.289903e+01 1.931696e+02 6.120306e+00
      vertex   -6.746640e+01 1.926167e+02 1.000000e+00
      vertex   -6.366083e+01 1.915970e+02 3.785869e+00
    endloop
  endfacet
  facet normal 5.576775e-01 -1.494291e-01 -8.164966e-01
    outer loop
      vertex   -6.289903e+01 1.931696e+02 6.120306e+00
      vertex   -6.409544e+01 1.887046e+02 6.120306e+00
      vertex   -6.989350e+01 1.950438e+02 1.000000e+00
    endloop
  endfacet
  facet normal 5.576775e-01 -1.494291e-01 -8.164966e-01
    outer loop
      vertex   -6.989350e+01 1.950438e+02 1.000000e+00
      vertex   -6.409544e+01 1.887046e+02 6.120306e+00
      vertex   -7.108990e+01 1.905787e+02 1.000000e+00
    endloop
  endfacet
  facet normal -2.113251e-01 7.886750e-01 5.773504e-01
    outer loop
      vertex   -7.108990e+01 1.905787e+02 1.000000e+00
      vertex   -6.409544e+01 1.887046e+02 6.120306e+00
      vertex   -6.777442e+01 1.914671e+02 1.000000e+00
    endloop
  endfacet
  facet normal -2.113247e-01 7.886752e-01 5.773503e-01
    outer loop
      vertex   -6.777442e+01 1.914671e+02 1.000000e+00
      vertex   -6.409544e+01 1.887046e+02 6.120306e+00
      vertex   -6.396885e+01 1.904474e+02 3.785869e+00
    endloop
  endfacet
  facet normal 2.562921e-01 -9.564834e-01 1.394774e-01
    outer loop
      vertex   -5.819077e+01 1.859898e+02 1.000000e+00
      vertex   -5.840304e+01 1.863392e+02 3.785869e+00
      vertex   -5.956174e+01 1.856225e+02 1.000000e+00
    endloop
  endfacet
  facet normal 2.562961e-01 -9.564825e-01 1.394756e-01
    outer loop
      vertex   -5.956174e+01 1.856225e+02 1.000000e+00
      vertex   -5.840304e+01 1.863392e+02 3.785869e+00
      vertex   -5.955259e+01 1.860311e+02 3.785869e+00
    endloop
  endfacet
  facet normal 2.562963e-01 -9.564834e-01 1.394695e-01
    outer loop
      vertex   -5.955259e+01 1.860311e+02 3.785869e+00
      vertex   -5.840304e+01 1.863392e+02 3.785869e+00
      vertex   -5.683040e+01 1.871010e+02 6.120306e+00
    endloop
  endfacet
  facet normal 2.562880e-01 -9.564841e-01 1.394795e-01
    outer loop
      vertex   -5.955259e+01 1.860311e+02 3.785869e+00
      vertex   -5.683040e+01 1.871010e+02 6.120306e+00
      vertex   -6.129543e+01 1.859046e+02 6.120306e+00
    endloop
  endfacet
  facet normal 9.560672e-01 2.895758e-01 -4.562187e-02
    outer loop
      vertex   -5.853289e+01 1.822256e+02 1.000000e+00
      vertex   -5.956174e+01 1.856225e+02 1.000000e+00
      vertex   -5.955259e+01 1.860311e+02 3.785869e+00
    endloop
  endfacet
  facet normal 7.886752e-01 -2.113246e-01 5.773502e-01
    outer loop
      vertex   -5.942127e+01 1.789101e+02 1.000000e+00
      vertex   -5.853289e+01 1.822256e+02 1.000000e+00
      vertex   -6.129543e+01 1.859046e+02 6.120306e+00
    endloop
  endfacet
  facet normal 7.886745e-01 -2.113259e-01 5.773507e-01
    outer loop
      vertex   -6.129543e+01 1.859046e+02 6.120306e+00
      vertex   -5.853289e+01 1.822256e+02 1.000000e+00
      vertex   -5.955259e+01 1.860311e+02 3.785869e+00
    endloop
  endfacet
  facet normal -1.494285e-01 5.576773e-01 -8.164969e-01
    outer loop
      vertex   -6.129543e+01 1.859046e+02 6.120306e+00
      vertex   -5.683040e+01 1.871010e+02 6.120306e+00
      vertex   -5.942127e+01 1.789101e+02 1.000000e+00
    endloop
  endfacet
  facet normal -1.494305e-01 5.576776e-01 -8.164963e-01
    outer loop
      vertex   -5.942127e+01 1.789101e+02 1.000000e+00
      vertex   -5.683040e+01 1.871010e+02 6.120306e+00
      vertex   -5.495624e+01 1.801065e+02 1.000000e+00
    endloop
  endfacet
  facet normal -5.773490e-01 -5.773509e-01 5.773509e-01
    outer loop
      vertex   -5.495624e+01 1.801065e+02 1.000000e+00
      vertex   -5.683040e+01 1.871010e+02 6.120306e+00
      vertex   -5.738334e+01 1.825336e+02 1.000000e+00
    endloop
  endfacet
  facet normal -5.773510e-01 -5.773497e-01 5.773501e-01
    outer loop
      vertex   -5.738334e+01 1.825336e+02 1.000000e+00
      vertex   -5.683040e+01 1.871010e+02 6.120306e+00
      vertex   -5.840304e+01 1.863392e+02 3.785869e+00
    endloop
  endfacet
  facet normal -9.727663e-01 -2.272541e-01 -4.562202e-02
    outer loop
      vertex   -5.819077e+01 1.859898e+02 1.000000e+00
      vertex   -5.738334e+01 1.825336e+02 1.000000e+00
      vertex   -5.840304e+01 1.863392e+02 3.785869e+00
    endloop
  endfacet
  facet normal 4.082482e-01 4.082482e-01 8.164966e-01
    outer loop
      vertex   -5.333974e+01 2.006602e+02 1.000000e+00
      vertex   -6.084530e+01 1.931547e+02 8.505553e+00
      vertex   -4.933974e+01 1.966602e+02 1.000000e+00
    endloop
  endfacet
  facet normal 4.082482e-01 4.082482e-01 8.164966e-01
    outer loop
      vertex   -4.933974e+01 1.966602e+02 1.000000e+00
      vertex   -6.084530e+01 1.931547e+02 8.505553e+00
      vertex   -5.684530e+01 1.891547e+02 8.505553e+00
    endloop
  endfacet
  facet normal 0.000000e+00 0.000000e+00 1.000000e+00
    outer loop
      vertex   -5.684530e+01 1.891547e+02 8.505553e+00
      vertex   -6.084530e+01 1.931547e+02 8.505553e+00
      vertex   -6.230940e+01 1.876906e+02 8.505553e+00
    endloop
  endfacet
  facet normal -5.773501e-01 -5.773504e-01 5.773504e-01
    outer loop
      vertex   -6.746410e+01 1.905359e+02 1.000000e+00
      vertex   -5.946410e+01 1.825359e+02 1.000000e+00
      vertex   -6.115470e+01 1.888453e+02 5.618802e+00
    endloop
  endfacet
  facet normal 2.113260e-01 -7.886742e-01 -5.773511e-01
    outer loop
      vertex   -7.156218e+01 1.894378e+02 1.000000e+00
      vertex   -6.746410e+01 1.905359e+02 1.000000e+00
      vertex   -6.288675e+01 1.871133e+02 7.350853e+00
    endloop
  endfacet
  facet normal 2.113256e-01 -7.886745e-01 -5.773509e-01
    outer loop
      vertex   -6.288675e+01 1.871133e+02 7.350853e+00
      vertex   -6.746410e+01 1.905359e+02 1.000000e+00
      vertex   -6.115470e+01 1.888453e+02 5.618802e+00
    endloop
  endfacet
  facet normal 2.113263e-01 -7.886751e-01 -5.773498e-01
    outer loop
      vertex   -4.970577e+01 1.952942e+02 1.000000e+00
      vertex   -5.605663e+01 1.889434e+02 7.350853e+00
      vertex   -5.380385e+01 1.941962e+02 1.000000e+00
    endloop
  endfacet
  facet normal 2.113256e-01 -7.886751e-01 -5.773500e-01
    outer loop
      vertex   -5.380385e+01 1.941962e+02 1.000000e+00
      vertex   -5.605663e+01 1.889434e+02 7.350853e+00
      vertex   -5.842265e+01 1.895773e+02 5.618802e+00
    endloop
  endfacet
  facet normal 1.494287e-01 -5.576777e-01 8.164966e-01
    outer loop
      vertex   -5.409808e+01 1.789019e+02 1.000000e+00
      vertex   -5.684530e+01 1.891547e+02 8.505553e+00
      vertex   -5.956218e+01 1.774378e+02 1.000000e+00
    endloop
  endfacet
  facet normal 1.494287e-01 -5.576777e-01 8.164966e-01
    outer loop
      vertex   -5.956218e+01 1.774378e+02 1.000000e+00
      vertex   -5.684530e+01 1.891547e+02 8.505553e+00
      vertex   -6.230940e+01 1.876906e+02 8.505553e+00
    endloop
  endfacet
  facet normal 7.886762e-01 -2.113286e-01 5.773475e-01
    outer loop
      vertex   -4.970577e+01 1.952942e+02 1.000000e+00
      vertex   -4.933974e+01 1.966602e+02 1.000000e+00
      vertex   -5.605663e+01 1.889434e+02 7.350853e+00
    endloop
  endfacet
  facet normal 7.886757e-01 -2.113269e-01 5.773488e-01
    outer loop
      vertex   -5.605663e+01 1.889434e+02 7.350853e+00
      vertex   -4.933974e+01 1.966602e+02 1.000000e+00
      vertex   -5.684530e+01 1.891547e+02 8.505553e+00
    endloop
  endfacet
  facet normal 7.886766e-01 -2.113235e-01 5.773488e-01
    outer loop
      vertex   -5.605663e+01 1.889434e+02 7.350853e+00
      vertex   -5.684530e+01 1.891547e+02 8.505553e+00
      vertex   -5.409808e+01 1.789019e+02 1.000000e+00
    endloop
  endfacet
  facet normal 7.886760e-01 -2.113239e-01 5.773494e-01
    outer loop
      vertex   -5.409808e+01 1.789019e+02 1.000000e+00
      vertex   -5.373205e+01 1.802679e+02 1.000000e+00
      vertex   -5.605663e+01 1.889434e+02 7.350853e+00
    endloop
  endfacet
  facet normal -7.886748e-01 2.113251e-01 -5.773506e-01
    outer loop
      vertex   -6.056218e+01 1.784378e+02 1.000000e+00
      vertex   -6.288675e+01 1.871133e+02 7.350853e+00
      vertex   -5.946410e+01 1.825359e+02 1.000000e+00
    endloop
  endfacet
  facet normal -7.886751e-01 2.113246e-01 -5.773504e-01
    outer loop
      vertex   -5.946410e+01 1.825359e+02 1.000000e+00
      vertex   -6.288675e+01 1.871133e+02 7.350853e+00
      vertex   -6.115470e+01 1.888453e+02 5.618802e+00
    endloop
  endfacet
  facet normal 5.773501e-01 5.773501e-01 -5.773505e-01
    outer loop
      vertex   -5.373205e+01 1.802679e+02 1.000000e+00
      vertex   -5.673205e+01 1.832679e+02 1.000000e+00
      vertex   -5.605663e+01 1.889434e+02 7.350853e+00
    endloop
  endfacet
  facet normal 5.773501e-01 5.773501e-01 -5.773505e-01
    outer loop
      vertex   -5.605663e+01 1.889434e+02 7.350853e+00
      vertex   -5.673205e+01 1.832679e+02 1.000000e+00
      vertex   -5.842265e+01 1.895773e+02 5.618802e+00
    endloop
  endfacet
  facet normal 7.886752e-01 -2.113248e-01 5.773501e-01
    outer loop
      vertex   -5.673205e+01 1.832679e+02 1.000000e+00
      vertex   -5.380385e+01 1.941962e+02 1.000000e+00
      vertex   -5.842265e+01 1.895773e+02 5.618802e+00
    endloop
  endfacet
  facet normal -5.773501e-01 -5.773501e-01 5.773505e-01
    outer loop
      vertex   -7.156218e+01 1.894378e+02 1.000000e+00
      vertex   -6.288675e+01 1.871133e+02 7.350853e+00
      vertex   -7.256218e+01 1.904378e+02 1.000000e+00
    endloop
  endfacet
  facet normal -5.773499e-01 -5.773516e-01 5.773493e-01
    outer loop
      vertex   -7.256218e+01 1.904378e+02 1.000000e+00
      vertex   -6.288675e+01 1.871133e+02 7.350853e+00
      vertex   -6.230940e+01 1.876906e+02 8.505553e+00
    endloop
  endfacet
  facet normal -5.773517e-01 -5.773497e-01 5.773493e-01
    outer loop
      vertex   -6.230940e+01 1.876906e+02 8.505553e+00
      vertex   -6.288675e+01 1.871133e+02 7.350853e+00
      vertex   -6.056218e+01 1.784378e+02 1.000000e+00
    endloop
  endfacet
  facet normal -5.773503e-01 -5.773503e-01 5.773503e-01
    outer loop
      vertex   -6.230940e+01 1.876906e+02 8.505553e+00
      vertex   -6.056218e+01 1.784378e+02 1.000000e+00
      vertex   -5.956218e+01 1.774378e+02 1.000000e+00
    endloop
  endfacet
  facet normal -5.576774e-01 1.494296e-01 8.164966e-01
    outer loop
      vertex   -7.109808e+01 1.959019e+02 1.000000e+00
      vertex   -7.256218e+01 1.904378e+02 1.000000e+00
      vertex   -6.084530e+01 1.931547e+02 8.505553e+00
    endloop
  endfacet
  facet normal -5.576774e-01 1.494296e-01 8.164966e-01
    outer loop
      vertex   -6.084530e+01 1.931547e+02 8.505553e+00
      vertex   -7.256218e+01 1.904378e+02 1.000000e+00
      vertex   -6.230940e+01 1.876906e+02 8.505553e+00
    endloop
  endfacet
  facet normal 5.773503e-01 5.773503e-01 -5.773503e-01
    outer loop
      vertex   -6.973205e+01 1.962679e+02 1.000000e+00
      vertex   -6.105663e+01 1.939434e+02 7.350853e+00
      vertex   -6.673205e+01 1.932679e+02 1.000000e+00
    endloop
  endfacet
  facet normal 5.773504e-01 5.773501e-01 -5.773503e-01
    outer loop
      vertex   -6.673205e+01 1.932679e+02 1.000000e+00
      vertex   -6.105663e+01 1.939434e+02 7.350853e+00
      vertex   -6.042265e+01 1.915773e+02 5.618802e+00
    endloop
  endfacet
  facet normal -2.113164e-01 7.886724e-01 5.773571e-01
    outer loop
      vertex   -5.470577e+01 2.002942e+02 1.000000e+00
      vertex   -6.105663e+01 1.939434e+02 7.350853e+00
      vertex   -5.333974e+01 2.006602e+02 1.000000e+00
    endloop
  endfacet
  facet normal -2.113208e-01 7.886741e-01 5.773532e-01
    outer loop
      vertex   -5.333974e+01 2.006602e+02 1.000000e+00
      vertex   -6.105663e+01 1.939434e+02 7.350853e+00
      vertex   -6.084530e+01 1.931547e+02 8.505553e+00
    endloop
  endfacet
  facet normal -2.113279e-01 7.886721e-01 5.773532e-01
    outer loop
      vertex   -6.084530e+01 1.931547e+02 8.505553e+00
      vertex   -6.105663e+01 1.939434e+02 7.350853e+00
      vertex   -7.109808e+01 1.959019e+02 1.000000e+00
    endloop
  endfacet
  facet normal -2.113257e-01 7.886746e-01 5.773507e-01
    outer loop
      vertex   -7.109808e+01 1.959019e+02 1.000000e+00
      vertex   -6.105663e+01 1.939434e+02 7.350853e+00
      vertex   -6.973205e+01 1.962679e+02 1.000000e+00
    endloop
  endfacet
  facet normal -7.886751e-01 2.113244e-01 -5.773504e-01
    outer loop
      vertex   -5.470577e+01 2.002942e+02 1.000000e+00
      vertex   -5.580385e+01 1.961962e+02 1.000000e+00
      vertex   -6.105663e+01 1.939434e+02 7.350853e+00
    endloop
  endfacet
  facet normal -7.886751e-01 2.113244e-01 -5.773505e-01
    outer loop
      vertex   -6.105663e+01 1.939434e+02 7.350853e+00
      vertex   -5.580385e+01 1.961962e+02 1.000000e+00
      vertex   -6.042265e+01 1.915773e+02 5.618802e+00
    endloop
  endfacet
  facet normal -2.113252e-01 7.886750e-01 5.773503e-01
    outer loop
      vertex   -5.580385e+01 1.961962e+02 1.000000e+00
      vertex   -6.673205e+01 1.932679e+02 1.000000e+00
      vertex   -6.042265e+01 1.915773e+02 5.618802e+00
    endloop
  endfacet
endsolid
